<svg width="316" height="228" viewBox="0 0 316 228" fill="none" xmlns="http://www.w3.org/2000/svg">
<g filter="url(#filter0_d_18711_281)">
<rect x="30" y="40" width="256" height="143" rx="10" fill="#333333"/>
</g>
<path d="M56.512 69.704L56.928 71.128H57.008L57.328 69.656L59.472 63.8H60.832L58 71.08C57.712 71.8373 57.456 72.472 57.232 72.984C57.0187 73.4853 56.8 73.896 56.576 74.216C56.352 74.5253 56.112 74.7493 55.856 74.888C55.6 75.016 55.2853 75.08 54.912 75.08C54.56 75.08 54.2773 75.0533 54.064 75C53.8613 74.936 53.6693 74.8453 53.488 74.728L53.888 73.624C54.1013 73.7413 54.2987 73.816 54.48 73.848C54.6613 73.88 54.8267 73.896 54.976 73.896C55.2747 73.896 55.5253 73.7467 55.728 73.448C55.9307 73.1387 56.1067 72.6853 56.256 72.088L52.112 63.8H53.648L56.512 69.704ZM63.2636 71.4H62.5276V75H61.2476V67H62.5276V70.616L63.2156 70.392L65.7756 67H67.1676L64.6876 70.216L64.0156 70.744L64.8476 71.384L67.5196 75H65.9356L63.2636 71.4ZM68.7603 67.592C69.1656 67.3467 69.6349 67.1653 70.1683 67.048C70.7123 66.9307 71.2776 66.872 71.8643 66.872C72.4189 66.872 72.8616 66.9467 73.1923 67.096C73.5336 67.2453 73.7896 67.4427 73.9603 67.688C74.1416 67.9227 74.2589 68.184 74.3123 68.472C74.3763 68.76 74.4083 69.048 74.4083 69.336C74.4083 69.976 74.3923 70.6 74.3603 71.208C74.3283 71.816 74.3123 72.392 74.3123 72.936C74.3123 73.3307 74.3283 73.704 74.3603 74.056C74.3923 74.408 74.4509 74.7333 74.5363 75.032H73.5923L73.2563 73.912H73.1763C73.0803 74.0613 72.9576 74.2107 72.8083 74.36C72.6696 74.4987 72.4989 74.6267 72.2963 74.744C72.0936 74.8507 71.8589 74.9413 71.5923 75.016C71.3256 75.0907 71.0216 75.128 70.6803 75.128C70.3389 75.128 70.0189 75.0747 69.7203 74.968C69.4323 74.8613 69.1816 74.712 68.9683 74.52C68.7549 74.3173 68.5843 74.0773 68.4563 73.8C68.3389 73.5227 68.2803 73.208 68.2803 72.856C68.2803 72.3867 68.3763 71.9973 68.5683 71.688C68.7603 71.368 69.0269 71.1173 69.3683 70.936C69.7203 70.744 70.1363 70.6107 70.6163 70.536C71.1069 70.4507 71.6456 70.408 72.2323 70.408C72.3816 70.408 72.5256 70.408 72.6643 70.408C72.8136 70.408 72.9629 70.4187 73.1123 70.44C73.1443 70.12 73.1603 69.832 73.1603 69.576C73.1603 68.9893 73.0429 68.5787 72.8083 68.344C72.5736 68.1093 72.1469 67.992 71.5283 67.992C71.3469 67.992 71.1496 68.008 70.9363 68.04C70.7336 68.0613 70.5203 68.0987 70.2963 68.152C70.0829 68.1947 69.8749 68.2533 69.6723 68.328C69.4803 68.392 69.3096 68.4667 69.1603 68.552L68.7603 67.592ZM71.0323 74.008C71.3309 74.008 71.5976 73.9707 71.8323 73.896C72.0669 73.8107 72.2696 73.7093 72.4403 73.592C72.6109 73.464 72.7496 73.3253 72.8563 73.176C72.9736 73.0267 73.0589 72.8827 73.1123 72.744V71.416C72.9629 71.4053 72.8083 71.4 72.6483 71.4C72.4989 71.3893 72.3496 71.384 72.2003 71.384C71.8696 71.384 71.5443 71.4053 71.2243 71.448C70.9149 71.48 70.6376 71.5493 70.3923 71.656C70.1576 71.752 69.9656 71.8907 69.8163 72.072C69.6776 72.2427 69.6083 72.4613 69.6083 72.728C69.6083 73.1013 69.7416 73.4107 70.0082 73.656C70.2749 73.8907 70.6163 74.008 71.0323 74.008ZM79.4338 71.464L77.0818 75H75.6098L78.1378 71.336L78.6818 70.856L77.8658 70.248L75.7858 67H77.1458L79.3538 70.456H80.1858V67H81.4338V70.616L82.1858 70.392L84.4097 67H85.7538L83.5778 70.248L82.9538 70.76L83.7698 71.4L86.1378 75H84.6178L82.2658 71.4H81.4338V75H80.1858V71.24L79.4338 71.464ZM92.3646 70.264L92.4126 69.272H92.3646L91.7086 70.296L88.1086 75H87.3726V67H88.6526V71.88L88.6046 72.824H88.6686L89.2926 71.832L92.8926 67H93.6446V75H92.3646V70.264ZM101.195 68.12H98.699V75H97.419V68.12H94.923V67H101.195V68.12ZM108.056 74.36C107.736 74.616 107.331 74.8187 106.84 74.968C106.36 75.1173 105.848 75.192 105.304 75.192C104.696 75.192 104.168 75.096 103.72 74.904C103.272 74.7013 102.904 74.4187 102.616 74.056C102.328 73.6827 102.115 73.24 101.976 72.728C101.838 72.216 101.768 71.64 101.768 71C101.768 69.6347 102.072 68.5947 102.68 67.88C103.288 67.1653 104.158 66.808 105.288 66.808C105.651 66.808 106.014 66.8507 106.376 66.936C106.739 67.0107 107.064 67.16 107.352 67.384C107.64 67.608 107.875 67.928 108.056 68.344C108.238 68.7493 108.328 69.288 108.328 69.96C108.328 70.312 108.296 70.7013 108.232 71.128H103.096C103.096 71.5973 103.144 72.0133 103.24 72.376C103.336 72.7387 103.486 73.048 103.688 73.304C103.891 73.5493 104.152 73.7413 104.472 73.88C104.803 74.008 105.203 74.072 105.672 74.072C106.035 74.072 106.398 74.008 106.76 73.88C107.123 73.752 107.395 73.6027 107.576 73.432L108.056 74.36ZM105.304 67.928C104.675 67.928 104.168 68.0933 103.784 68.424C103.411 68.7547 103.187 69.32 103.112 70.12H107.08C107.08 69.3093 106.926 68.744 106.616 68.424C106.307 68.0933 105.87 67.928 105.304 67.928ZM116.623 71.4H115.887V75H114.607V67H115.887V70.616L116.575 70.392L119.135 67H120.527L118.047 70.216L117.375 70.744L118.207 71.384L120.879 75H119.295L116.623 71.4ZM121.628 71C121.628 69.6453 121.926 68.6107 122.524 67.896C123.132 67.1707 124.001 66.808 125.132 66.808C125.729 66.808 126.246 66.9093 126.684 67.112C127.132 67.304 127.5 67.5867 127.788 67.96C128.076 68.3227 128.289 68.7653 128.428 69.288C128.566 69.8 128.636 70.3707 128.636 71C128.636 72.3547 128.332 73.3947 127.724 74.12C127.126 74.8347 126.262 75.192 125.132 75.192C124.534 75.192 124.012 75.096 123.564 74.904C123.126 74.7013 122.764 74.4187 122.476 74.056C122.188 73.6827 121.974 73.24 121.836 72.728C121.697 72.2053 121.628 71.6293 121.628 71ZM122.956 71C122.956 71.4053 122.993 71.7947 123.068 72.168C123.153 72.5413 123.281 72.8667 123.452 73.144C123.622 73.4213 123.846 73.6453 124.124 73.816C124.401 73.9867 124.737 74.072 125.132 74.072C126.582 74.0827 127.308 73.0587 127.308 71C127.308 70.584 127.265 70.1893 127.18 69.816C127.105 69.4427 126.982 69.1173 126.812 68.84C126.641 68.5627 126.417 68.344 126.14 68.184C125.862 68.0133 125.526 67.928 125.132 67.928C123.681 67.9173 122.956 68.9413 122.956 71ZM134.864 68.12H132.544C132.512 68.568 132.48 69.0533 132.448 69.576C132.416 70.088 132.368 70.6053 132.304 71.128C132.24 71.64 132.155 72.136 132.048 72.616C131.941 73.0853 131.803 73.5013 131.632 73.864C131.472 74.2267 131.269 74.52 131.024 74.744C130.789 74.9573 130.507 75.064 130.176 75.064C129.973 75.064 129.797 75.0533 129.648 75.032C129.499 75.0107 129.365 74.9733 129.248 74.92L129.44 73.848C129.568 73.8907 129.707 73.912 129.856 73.912C130.069 73.912 130.261 73.8213 130.432 73.64C130.603 73.4587 130.752 73.1173 130.88 72.616C131.008 72.104 131.115 71.4 131.2 70.504C131.285 69.608 131.344 68.44 131.376 67H136.144V75H134.864V68.12ZM143.599 70.264L143.647 69.272H143.599L142.943 70.296L139.343 75H138.607V67H139.887V71.88L139.839 72.824H139.903L140.527 71.832L144.127 67H144.879V75H143.599V70.264ZM148.173 67V69.176C148.173 69.464 148.189 69.7253 148.221 69.96C148.253 70.184 148.317 70.3813 148.413 70.552C148.509 70.712 148.648 70.84 148.829 70.936C149.011 71.0213 149.251 71.064 149.549 71.064C150.029 71.064 150.424 71.0107 150.733 70.904C151.043 70.7973 151.277 70.68 151.437 70.552V67H152.717V75H151.437V71.64C151.267 71.7467 151.011 71.864 150.669 71.992C150.339 72.12 149.88 72.184 149.293 72.184C148.899 72.184 148.552 72.1413 148.253 72.056C147.955 71.9707 147.704 71.8213 147.501 71.608C147.299 71.3947 147.144 71.112 147.037 70.76C146.941 70.408 146.893 69.9653 146.893 69.432V67H148.173ZM161.025 74.36C160.705 74.616 160.3 74.8187 159.809 74.968C159.329 75.1173 158.817 75.192 158.273 75.192C157.665 75.192 157.137 75.096 156.689 74.904C156.241 74.7013 155.873 74.4187 155.585 74.056C155.297 73.6827 155.084 73.24 154.945 72.728C154.806 72.216 154.737 71.64 154.737 71C154.737 69.6347 155.041 68.5947 155.649 67.88C156.257 67.1653 157.126 66.808 158.257 66.808C158.62 66.808 158.982 66.8507 159.345 66.936C159.708 67.0107 160.033 67.16 160.321 67.384C160.609 67.608 160.844 67.928 161.025 68.344C161.206 68.7493 161.297 69.288 161.297 69.96C161.297 70.312 161.265 70.7013 161.201 71.128H156.065C156.065 71.5973 156.113 72.0133 156.209 72.376C156.305 72.7387 156.454 73.048 156.657 73.304C156.86 73.5493 157.121 73.7413 157.441 73.88C157.772 74.008 158.172 74.072 158.641 74.072C159.004 74.072 159.366 74.008 159.729 73.88C160.092 73.752 160.364 73.6027 160.545 73.432L161.025 74.36ZM158.273 67.928C157.644 67.928 157.137 68.0933 156.753 68.424C156.38 68.7547 156.156 69.32 156.081 70.12H160.049C160.049 69.3093 159.894 68.744 159.585 68.424C159.276 68.0933 158.838 67.928 158.273 67.928ZM168.594 74.472C168.274 74.7067 167.896 74.8827 167.458 75C167.021 75.128 166.562 75.192 166.082 75.192C165.464 75.192 164.941 75.096 164.514 74.904C164.088 74.7013 163.736 74.4187 163.458 74.056C163.192 73.6827 162.994 73.24 162.866 72.728C162.749 72.2053 162.69 71.6293 162.69 71C162.69 69.6453 162.989 68.6107 163.586 67.896C164.184 67.1707 165.042 66.808 166.162 66.808C166.674 66.808 167.106 66.8507 167.458 66.936C167.821 67.0107 168.146 67.1227 168.434 67.272L168.066 68.376C167.821 68.2373 167.549 68.1307 167.25 68.056C166.952 67.9707 166.632 67.928 166.29 67.928C164.776 67.928 164.018 68.952 164.018 71C164.018 71.4053 164.056 71.7947 164.13 72.168C164.216 72.5307 164.349 72.856 164.53 73.144C164.722 73.4213 164.968 73.6453 165.266 73.816C165.576 73.9867 165.954 74.072 166.402 74.072C166.786 74.072 167.128 74.0133 167.426 73.896C167.736 73.7787 167.986 73.6453 168.178 73.496L168.594 74.472ZM175.195 68.12H172.699V75H171.419V68.12H168.923V67H175.195V68.12ZM176.466 67.016C176.84 66.9947 177.229 66.968 177.634 66.936C178.05 66.904 178.562 66.888 179.17 66.888C180.226 66.888 180.984 67.0533 181.442 67.384C181.901 67.704 182.13 68.1947 182.13 68.856C182.13 69.2293 182.018 69.5973 181.794 69.96C181.581 70.312 181.224 70.5733 180.722 70.744V70.808C181.352 70.9253 181.794 71.144 182.05 71.464C182.306 71.784 182.434 72.2107 182.434 72.744C182.434 73.576 182.136 74.1787 181.538 74.552C180.941 74.9253 180.045 75.112 178.85 75.112C178.402 75.112 177.986 75.096 177.602 75.064C177.218 75.0427 176.84 75.016 176.466 74.984V67.016ZM177.746 73.928C177.949 73.9493 178.146 73.9653 178.338 73.976C178.541 73.9867 178.776 73.992 179.042 73.992C179.757 73.992 180.285 73.8907 180.626 73.688C180.978 73.4853 181.154 73.1387 181.154 72.648C181.154 72.264 181.005 71.9547 180.706 71.72C180.418 71.4747 179.901 71.352 179.154 71.352H177.746V73.928ZM179.314 70.376C179.506 70.376 179.693 70.344 179.874 70.28C180.056 70.216 180.216 70.1307 180.354 70.024C180.504 69.9067 180.621 69.7733 180.706 69.624C180.802 69.4747 180.85 69.3147 180.85 69.144C180.85 68.7173 180.722 68.424 180.466 68.264C180.21 68.0933 179.762 68.008 179.122 68.008C178.781 68.008 178.509 68.0133 178.306 68.024C178.114 68.0347 177.928 68.0453 177.746 68.056V70.376H179.314ZM184.003 71C184.003 69.6453 184.301 68.6107 184.899 67.896C185.507 67.1707 186.376 66.808 187.507 66.808C188.104 66.808 188.621 66.9093 189.059 67.112C189.507 67.304 189.875 67.5867 190.163 67.96C190.451 68.3227 190.664 68.7653 190.803 69.288C190.941 69.8 191.011 70.3707 191.011 71C191.011 72.3547 190.707 73.3947 190.099 74.12C189.501 74.8347 188.637 75.192 187.507 75.192C186.909 75.192 186.387 75.096 185.939 74.904C185.501 74.7013 185.139 74.4187 184.851 74.056C184.563 73.6827 184.349 73.24 184.211 72.728C184.072 72.2053 184.003 71.6293 184.003 71ZM185.331 71C185.331 71.4053 185.368 71.7947 185.443 72.168C185.528 72.5413 185.656 72.8667 185.827 73.144C185.997 73.4213 186.221 73.6453 186.499 73.816C186.776 73.9867 187.112 74.072 187.507 74.072C188.957 74.0827 189.683 73.0587 189.683 71C189.683 70.584 189.64 70.1893 189.555 69.816C189.48 69.4427 189.357 69.1173 189.187 68.84C189.016 68.5627 188.792 68.344 188.515 68.184C188.237 68.0133 187.901 67.928 187.507 67.928C186.056 67.9173 185.331 68.9413 185.331 71ZM203.96 77.032H203.096L202.856 75H196.84L196.6 77.032H195.736V73.88H196.68C196.766 73.7627 196.878 73.5547 197.016 73.256C197.155 72.9467 197.288 72.52 197.416 71.976C197.555 71.4213 197.672 70.7387 197.768 69.928C197.875 69.1067 197.939 68.1307 197.96 67H202.792V73.88H203.96V77.032ZM201.512 73.88V68.12H199.112C199.091 68.568 199.054 69.0587 199 69.592C198.947 70.1147 198.872 70.6427 198.776 71.176C198.691 71.6987 198.579 72.1947 198.44 72.664C198.302 73.1333 198.142 73.5387 197.96 73.88H201.512ZM211.385 74.36C211.065 74.616 210.659 74.8187 210.169 74.968C209.689 75.1173 209.177 75.192 208.633 75.192C208.025 75.192 207.497 75.096 207.049 74.904C206.601 74.7013 206.233 74.4187 205.945 74.056C205.657 73.6827 205.443 73.24 205.305 72.728C205.166 72.216 205.097 71.64 205.097 71C205.097 69.6347 205.401 68.5947 206.009 67.88C206.617 67.1653 207.486 66.808 208.617 66.808C208.979 66.808 209.342 66.8507 209.705 66.936C210.067 67.0107 210.393 67.16 210.681 67.384C210.969 67.608 211.203 67.928 211.385 68.344C211.566 68.7493 211.657 69.288 211.657 69.96C211.657 70.312 211.625 70.7013 211.561 71.128H206.424C206.424 71.5973 206.473 72.0133 206.569 72.376C206.665 72.7387 206.814 73.048 207.017 73.304C207.219 73.5493 207.481 73.7413 207.801 73.88C208.131 74.008 208.531 74.072 209.001 74.072C209.363 74.072 209.726 74.008 210.089 73.88C210.451 73.752 210.723 73.6027 210.905 73.432L211.385 74.36ZM208.633 67.928C208.003 67.928 207.497 68.0933 207.113 68.424C206.739 68.7547 206.515 69.32 206.441 70.12H210.409C210.409 69.3093 210.254 68.744 209.945 68.424C209.635 68.0933 209.198 67.928 208.633 67.928ZM218.758 68.12H216.262V75H214.982V68.12H212.486V67H218.758V68.12ZM225.619 74.36C225.299 74.616 224.894 74.8187 224.403 74.968C223.923 75.1173 223.411 75.192 222.867 75.192C222.259 75.192 221.731 75.096 221.283 74.904C220.835 74.7013 220.467 74.4187 220.179 74.056C219.891 73.6827 219.678 73.24 219.539 72.728C219.4 72.216 219.331 71.64 219.331 71C219.331 69.6347 219.635 68.5947 220.243 67.88C220.851 67.1653 221.72 66.808 222.851 66.808C223.214 66.808 223.576 66.8507 223.939 66.936C224.302 67.0107 224.627 67.16 224.915 67.384C225.203 67.608 225.438 67.928 225.619 68.344C225.8 68.7493 225.891 69.288 225.891 69.96C225.891 70.312 225.859 70.7013 225.795 71.128H220.659C220.659 71.5973 220.707 72.0133 220.803 72.376C220.899 72.7387 221.048 73.048 221.251 73.304C221.454 73.5493 221.715 73.7413 222.035 73.88C222.366 74.008 222.766 74.072 223.235 74.072C223.598 74.072 223.96 74.008 224.323 73.88C224.686 73.752 224.958 73.6027 225.139 73.432L225.619 74.36ZM222.867 67.928C222.238 67.928 221.731 68.0933 221.347 68.424C220.974 68.7547 220.75 69.32 220.675 70.12H224.643C224.643 69.3093 224.488 68.744 224.179 68.424C223.87 68.0933 223.432 67.928 222.867 67.928ZM232.896 70.264L232.944 69.272H232.896L232.24 70.296L228.64 75H227.904V67H229.184V71.88L229.136 72.824H229.2L229.824 71.832L233.424 67H234.176V75H232.896V70.264ZM229.744 63.768C229.851 64.2587 230.032 64.6 230.288 64.792C230.555 64.984 230.859 65.08 231.2 65.08C231.541 65.08 231.845 64.9787 232.112 64.776C232.379 64.5733 232.56 64.2427 232.656 63.784L233.616 64.088C233.52 64.7067 233.243 65.1813 232.784 65.512C232.336 65.8427 231.797 66.008 231.168 66.008C230.88 66.008 230.592 65.9707 230.304 65.896C230.027 65.8213 229.776 65.7093 229.552 65.56C229.328 65.4107 229.136 65.2187 228.976 64.984C228.816 64.7493 228.709 64.472 228.656 64.152L229.744 63.768ZM236.19 74.312C236.19 74.056 236.276 73.848 236.446 73.688C236.617 73.528 236.836 73.448 237.102 73.448C237.433 73.448 237.7 73.5653 237.902 73.8C238.116 74.0347 238.222 74.376 238.222 74.824C238.222 75.208 238.169 75.544 238.062 75.832C237.956 76.12 237.817 76.3653 237.646 76.568C237.476 76.7813 237.289 76.952 237.086 77.08C236.884 77.2187 236.681 77.32 236.478 77.384L236.078 76.76C236.462 76.6107 236.745 76.376 236.926 76.056C237.118 75.7467 237.214 75.432 237.214 75.112C237.118 75.144 237.028 75.16 236.942 75.16C236.729 75.16 236.548 75.0907 236.398 74.952C236.26 74.8027 236.19 74.5893 236.19 74.312ZM55.248 91.4H54.512V95H53.232V87H54.512V90.616L55.2 90.392L57.76 87H59.152L56.672 90.216L56 90.744L56.832 91.384L59.504 95H57.92L55.248 91.4ZM60.2528 91C60.2528 89.6453 60.5514 88.6107 61.1488 87.896C61.7568 87.1707 62.6261 86.808 63.7568 86.808C64.3541 86.808 64.8714 86.9093 65.3088 87.112C65.7568 87.304 66.1248 87.5867 66.4128 87.96C66.7008 88.3227 66.9141 88.7653 67.0528 89.288C67.1914 89.8 67.2608 90.3707 67.2608 91C67.2608 92.3547 66.9568 93.3947 66.3488 94.12C65.7514 94.8347 64.8874 95.192 63.7568 95.192C63.1594 95.192 62.6368 95.096 62.1888 94.904C61.7514 94.7013 61.3888 94.4187 61.1008 94.056C60.8128 93.6827 60.5994 93.24 60.4608 92.728C60.3221 92.2053 60.2528 91.6293 60.2528 91ZM61.5807 91C61.5807 91.4053 61.6181 91.7947 61.6928 92.168C61.7781 92.5413 61.9061 92.8667 62.0768 93.144C62.2474 93.4213 62.4714 93.6453 62.7488 93.816C63.0261 93.9867 63.3621 94.072 63.7568 94.072C65.2074 94.0827 65.9328 93.0587 65.9328 91C65.9328 90.584 65.8901 90.1893 65.8048 89.816C65.7301 89.4427 65.6074 89.1173 65.4368 88.84C65.2661 88.5627 65.0421 88.344 64.7648 88.184C64.4874 88.0133 64.1514 87.928 63.7568 87.928C62.3061 87.9173 61.5807 88.9413 61.5807 91ZM74.1169 88.12H71.6209V95H70.3409V88.12H67.8449V87H74.1169V88.12ZM74.6903 91C74.6903 89.6453 74.9889 88.6107 75.5863 87.896C76.1943 87.1707 77.0636 86.808 78.1943 86.808C78.7916 86.808 79.3089 86.9093 79.7463 87.112C80.1943 87.304 80.5623 87.5867 80.8503 87.96C81.1383 88.3227 81.3516 88.7653 81.4903 89.288C81.6289 89.8 81.6983 90.3707 81.6983 91C81.6983 92.3547 81.3943 93.3947 80.7863 94.12C80.1889 94.8347 79.3249 95.192 78.1943 95.192C77.5969 95.192 77.0743 95.096 76.6263 94.904C76.1889 94.7013 75.8263 94.4187 75.5383 94.056C75.2503 93.6827 75.0369 93.24 74.8983 92.728C74.7596 92.2053 74.6903 91.6293 74.6903 91ZM76.0182 91C76.0182 91.4053 76.0556 91.7947 76.1303 92.168C76.2156 92.5413 76.3436 92.8667 76.5143 93.144C76.6849 93.4213 76.9089 93.6453 77.1863 93.816C77.4636 93.9867 77.7996 94.072 78.1943 94.072C79.6449 94.0827 80.3703 93.0587 80.3703 91C80.3703 90.584 80.3276 90.1893 80.2423 89.816C80.1676 89.4427 80.0449 89.1173 79.8743 88.84C79.7036 88.5627 79.4796 88.344 79.2023 88.184C78.9249 88.0133 78.5889 87.928 78.1943 87.928C76.7436 87.9173 76.0182 88.9413 76.0182 91ZM83.7164 87H84.5964L84.8364 87.96H84.9004C85.1457 87.5867 85.4604 87.304 85.8444 87.112C86.239 86.9093 86.687 86.808 87.1884 86.808C88.255 86.808 89.0497 87.1227 89.5724 87.752C90.095 88.3813 90.3564 89.4107 90.3564 90.84C90.3564 91.512 90.2657 92.12 90.0844 92.664C89.9137 93.1973 89.6684 93.6507 89.3484 94.024C89.0284 94.3973 88.639 94.6853 88.1804 94.888C87.7324 95.0907 87.231 95.192 86.6764 95.192C86.2817 95.192 85.967 95.1653 85.7324 95.112C85.5084 95.0693 85.263 94.9893 84.9964 94.872V98.2H83.7164V87ZM86.9484 87.928C86.4044 87.928 85.9724 88.072 85.6524 88.36C85.343 88.6373 85.1244 89.064 84.9964 89.64V93.608C85.1884 93.7573 85.407 93.8747 85.6524 93.96C85.8977 94.0347 86.223 94.072 86.6284 94.072C87.3644 94.072 87.9457 93.8 88.3724 93.256C88.8097 92.7013 89.0284 91.8907 89.0284 90.824C89.0284 90.3867 88.991 89.992 88.9164 89.64C88.8417 89.2773 88.719 88.9733 88.5484 88.728C88.3884 88.472 88.175 88.2747 87.9084 88.136C87.6524 87.9973 87.3324 87.928 86.9484 87.928ZM93.6526 93.88C94.0473 93.944 94.426 93.976 94.7886 93.976C95.4606 93.976 95.93 93.848 96.1966 93.592C96.4633 93.3253 96.5966 92.952 96.5966 92.472C96.5966 92.0453 96.4633 91.6933 96.1966 91.416C95.9406 91.1387 95.4873 91 94.8366 91C94.6553 91 94.458 91.0053 94.2446 91.016C94.0313 91.0267 93.834 91.0587 93.6526 91.112V93.88ZM93.6526 90.056C93.9086 90.0133 94.154 89.9867 94.3886 89.976C94.6233 89.9547 94.8473 89.944 95.0606 89.944C95.6046 89.944 96.058 90.008 96.4206 90.136C96.794 90.2533 97.0926 90.4187 97.3166 90.632C97.5406 90.8453 97.6953 91.1013 97.7806 91.4C97.8766 91.688 97.9246 91.9973 97.9246 92.328C97.9246 93.2987 97.6526 94.0027 97.1086 94.44C96.5753 94.8773 95.706 95.096 94.5006 95.096C93.818 95.096 93.1086 95.064 92.3726 95V87H93.6526V90.056ZM99.1886 87H100.469V95H99.1886V87ZM108.775 94.36C108.455 94.616 108.05 94.8187 107.559 94.968C107.079 95.1173 106.567 95.192 106.023 95.192C105.415 95.192 104.887 95.096 104.439 94.904C103.991 94.7013 103.623 94.4187 103.335 94.056C103.047 93.6827 102.834 93.24 102.695 92.728C102.556 92.216 102.487 91.64 102.487 91C102.487 89.6347 102.791 88.5947 103.399 87.88C104.007 87.1653 104.876 86.808 106.007 86.808C106.37 86.808 106.732 86.8507 107.095 86.936C107.458 87.0107 107.783 87.16 108.071 87.384C108.359 87.608 108.594 87.928 108.775 88.344C108.956 88.7493 109.047 89.288 109.047 89.96C109.047 90.312 109.015 90.7013 108.951 91.128H103.815C103.815 91.5973 103.863 92.0133 103.959 92.376C104.055 92.7387 104.204 93.048 104.407 93.304C104.61 93.5493 104.871 93.7413 105.191 93.88C105.522 94.008 105.922 94.072 106.391 94.072C106.754 94.072 107.116 94.008 107.479 93.88C107.842 93.752 108.114 93.6027 108.295 93.432L108.775 94.36ZM106.023 87.928C105.394 87.928 104.887 88.0933 104.503 88.424C104.13 88.7547 103.906 89.32 103.831 90.12H107.799C107.799 89.3093 107.644 88.744 107.335 88.424C107.026 88.0933 106.588 87.928 106.023 87.928ZM116.062 88.424C116.414 87.912 116.803 87.5547 117.23 87.352C117.656 87.1387 118.19 87.032 118.83 87.032C119.811 87.032 120.563 87.352 121.086 87.992C121.619 88.632 121.886 89.576 121.886 90.824C121.886 92.264 121.576 93.352 120.958 94.088C120.35 94.824 119.496 95.192 118.398 95.192C117.224 95.192 116.344 94.7867 115.758 93.976C115.171 93.1653 114.878 91.8907 114.878 90.152C114.878 89.2347 114.92 88.4507 115.006 87.8C115.102 87.1493 115.235 86.6 115.406 86.152C115.587 85.704 115.8 85.3467 116.046 85.08C116.302 84.8133 116.584 84.6053 116.894 84.456C117.214 84.296 117.56 84.184 117.934 84.12C118.307 84.056 118.707 84.0027 119.134 83.96C119.688 83.9067 120.12 83.848 120.43 83.784C120.75 83.7093 121.006 83.5813 121.198 83.4L121.342 84.552C121.235 84.648 121.118 84.728 120.99 84.792C120.862 84.856 120.707 84.9093 120.526 84.952C120.344 84.9947 120.126 85.032 119.87 85.064C119.624 85.096 119.336 85.1227 119.006 85.144C118.547 85.176 118.142 85.2347 117.79 85.32C117.448 85.3947 117.15 85.5493 116.894 85.784C116.648 86.008 116.451 86.3333 116.302 86.76C116.163 87.176 116.067 87.7307 116.014 88.424H116.062ZM116.206 91.016C116.206 91.4213 116.248 91.8107 116.334 92.184C116.419 92.5573 116.547 92.888 116.718 93.176C116.899 93.4533 117.128 93.672 117.406 93.832C117.683 93.992 118.008 94.072 118.382 94.072C119.118 94.072 119.662 93.8107 120.014 93.288C120.376 92.7547 120.558 91.9707 120.558 90.936C120.558 90.5307 120.52 90.1573 120.446 89.816C120.371 89.4747 120.254 89.1813 120.094 88.936C119.934 88.68 119.731 88.488 119.486 88.36C119.24 88.2213 118.947 88.152 118.606 88.152C117.774 88.1413 117.166 88.3867 116.782 88.888C116.398 89.3787 116.206 90.088 116.206 91.016ZM126.068 92.184L126.516 93.72H126.596L126.948 92.168L128.5 87H129.796L127.428 94.184C127.247 94.7067 127.066 95.2133 126.884 95.704C126.714 96.1947 126.522 96.632 126.308 97.016C126.095 97.4 125.855 97.704 125.588 97.928C125.322 98.1627 125.012 98.28 124.66 98.28C124.276 98.28 123.962 98.2267 123.716 98.12L123.94 97.016C124.079 97.0693 124.212 97.096 124.34 97.096C124.639 97.096 124.927 96.936 125.204 96.616C125.482 96.3067 125.711 95.768 125.892 95L122.676 87H124.148L126.068 92.184ZM138.023 97.032H137.159L136.919 95H130.903L130.663 97.032H129.799V93.88H130.743C130.828 93.7627 130.94 93.5547 131.079 93.256C131.217 92.9467 131.351 92.52 131.479 91.976C131.617 91.4213 131.735 90.7387 131.831 89.928C131.937 89.1067 132.001 88.1307 132.023 87H136.855V93.88H138.023V97.032ZM135.575 93.88V88.12H133.175C133.153 88.568 133.116 89.0587 133.063 89.592C133.009 90.1147 132.935 90.6427 132.839 91.176C132.753 91.6987 132.641 92.1947 132.503 92.664C132.364 93.1333 132.204 93.5387 132.023 93.88H135.575ZM141.959 92.184L142.407 93.72H142.487L142.839 92.168L144.391 87H145.687L143.319 94.184C143.138 94.7067 142.956 95.2133 142.775 95.704C142.604 96.1947 142.412 96.632 142.199 97.016C141.986 97.4 141.746 97.704 141.479 97.928C141.212 98.1627 140.903 98.28 140.551 98.28C140.167 98.28 139.852 98.2267 139.607 98.12L139.831 97.016C139.97 97.0693 140.103 97.096 140.231 97.096C140.53 97.096 140.818 96.936 141.095 96.616C141.372 96.3067 141.602 95.768 141.783 95L138.567 87H140.039L141.959 92.184ZM152.148 88.12H149.652V95H148.372V88.12H145.876V87H152.148V88.12ZM162.641 94.472C162.321 94.7067 161.942 94.8827 161.505 95C161.068 95.128 160.609 95.192 160.129 95.192C159.51 95.192 158.988 95.096 158.561 94.904C158.134 94.7013 157.782 94.4187 157.505 94.056C157.238 93.6827 157.041 93.24 156.913 92.728C156.796 92.2053 156.737 91.6293 156.737 91C156.737 89.6453 157.036 88.6107 157.633 87.896C158.23 87.1707 159.089 86.808 160.209 86.808C160.721 86.808 161.153 86.8507 161.505 86.936C161.868 87.0107 162.193 87.1227 162.481 87.272L162.113 88.376C161.868 88.2373 161.596 88.1307 161.297 88.056C160.998 87.9707 160.678 87.928 160.337 87.928C158.822 87.928 158.065 88.952 158.065 91C158.065 91.4053 158.102 91.7947 158.177 92.168C158.262 92.5307 158.396 92.856 158.577 93.144C158.769 93.4213 159.014 93.6453 159.313 93.816C159.622 93.9867 160.001 94.072 160.449 94.072C160.833 94.072 161.174 94.0133 161.473 93.896C161.782 93.7787 162.033 93.6453 162.225 93.496L162.641 94.472ZM168.67 87.016C169.043 86.9947 169.432 86.968 169.838 86.936C170.254 86.904 170.766 86.888 171.374 86.888C172.43 86.888 173.187 87.0533 173.646 87.384C174.104 87.704 174.334 88.1947 174.334 88.856C174.334 89.2293 174.222 89.5973 173.998 89.96C173.784 90.312 173.427 90.5733 172.926 90.744V90.808C173.555 90.9253 173.998 91.144 174.254 91.464C174.51 91.784 174.638 92.2107 174.638 92.744C174.638 93.576 174.339 94.1787 173.742 94.552C173.144 94.9253 172.248 95.112 171.054 95.112C170.606 95.112 170.19 95.096 169.806 95.064C169.422 95.0427 169.043 95.016 168.67 94.984V87.016ZM169.95 93.928C170.152 93.9493 170.35 93.9653 170.542 93.976C170.744 93.9867 170.979 93.992 171.246 93.992C171.96 93.992 172.488 93.8907 172.83 93.688C173.182 93.4853 173.358 93.1387 173.358 92.648C173.358 92.264 173.208 91.9547 172.91 91.72C172.622 91.4747 172.104 91.352 171.358 91.352H169.95V93.928ZM171.518 90.376C171.71 90.376 171.896 90.344 172.078 90.28C172.259 90.216 172.419 90.1307 172.558 90.024C172.707 89.9067 172.824 89.7733 172.91 89.624C173.006 89.4747 173.054 89.3147 173.054 89.144C173.054 88.7173 172.926 88.424 172.67 88.264C172.414 88.0933 171.966 88.008 171.326 88.008C170.984 88.008 170.712 88.0133 170.51 88.024C170.318 88.0347 170.131 88.0453 169.95 88.056V90.376H171.518ZM176.526 87.592C176.931 87.3467 177.401 87.1653 177.934 87.048C178.478 86.9307 179.043 86.872 179.63 86.872C180.185 86.872 180.627 86.9467 180.958 87.096C181.299 87.2453 181.555 87.4427 181.726 87.688C181.907 87.9227 182.025 88.184 182.078 88.472C182.142 88.76 182.174 89.048 182.174 89.336C182.174 89.976 182.158 90.6 182.126 91.208C182.094 91.816 182.078 92.392 182.078 92.936C182.078 93.3307 182.094 93.704 182.126 94.056C182.158 94.408 182.217 94.7333 182.302 95.032H181.358L181.022 93.912H180.942C180.846 94.0613 180.723 94.2107 180.574 94.36C180.435 94.4987 180.265 94.6267 180.062 94.744C179.859 94.8507 179.625 94.9413 179.358 95.016C179.091 95.0907 178.787 95.128 178.446 95.128C178.105 95.128 177.785 95.0747 177.486 94.968C177.198 94.8613 176.947 94.712 176.734 94.52C176.521 94.3173 176.35 94.0773 176.222 93.8C176.105 93.5227 176.046 93.208 176.046 92.856C176.046 92.3867 176.142 91.9973 176.334 91.688C176.526 91.368 176.793 91.1173 177.134 90.936C177.486 90.744 177.902 90.6107 178.382 90.536C178.873 90.4507 179.411 90.408 179.998 90.408C180.147 90.408 180.291 90.408 180.43 90.408C180.579 90.408 180.729 90.4187 180.878 90.44C180.91 90.12 180.926 89.832 180.926 89.576C180.926 88.9893 180.809 88.5787 180.574 88.344C180.339 88.1093 179.913 87.992 179.294 87.992C179.113 87.992 178.915 88.008 178.702 88.04C178.499 88.0613 178.286 88.0987 178.062 88.152C177.849 88.1947 177.641 88.2533 177.438 88.328C177.246 88.392 177.075 88.4667 176.926 88.552L176.526 87.592ZM178.798 94.008C179.097 94.008 179.363 93.9707 179.598 93.896C179.833 93.8107 180.035 93.7093 180.206 93.592C180.377 93.464 180.515 93.3253 180.622 93.176C180.739 93.0267 180.825 92.8827 180.878 92.744V91.416C180.729 91.4053 180.574 91.4 180.414 91.4C180.265 91.3893 180.115 91.384 179.966 91.384C179.635 91.384 179.31 91.4053 178.99 91.448C178.681 91.48 178.403 91.5493 178.158 91.656C177.923 91.752 177.731 91.8907 177.582 92.072C177.443 92.2427 177.374 92.4613 177.374 92.728C177.374 93.1013 177.507 93.4107 177.774 93.656C178.041 93.8907 178.382 94.008 178.798 94.008ZM191.199 90.248L191.295 88.728H191.215L190.639 89.96L188.703 93.096H188.255L186.239 89.96L185.711 88.728H185.647L185.775 90.232V95H184.591V87H185.855L188.095 90.584L188.559 91.512H188.591L189.071 90.552L191.167 87H192.447V95H191.199V90.248ZM199.896 90.264L199.944 89.272H199.896L199.24 90.296L195.64 95H194.904V87H196.184V91.88L196.136 92.824H196.2L196.824 91.832L200.424 87H201.176V95H199.896V90.264ZM203.19 94.312C203.19 94.056 203.276 93.848 203.446 93.688C203.617 93.528 203.836 93.448 204.102 93.448C204.433 93.448 204.7 93.5653 204.902 93.8C205.116 94.0347 205.222 94.376 205.222 94.824C205.222 95.208 205.169 95.544 205.062 95.832C204.956 96.12 204.817 96.3653 204.646 96.568C204.476 96.7813 204.289 96.952 204.086 97.08C203.884 97.2187 203.681 97.32 203.478 97.384L203.078 96.76C203.462 96.6107 203.745 96.376 203.926 96.056C204.118 95.7467 204.214 95.432 204.214 95.112C204.118 95.144 204.028 95.16 203.942 95.16C203.729 95.16 203.548 95.0907 203.398 94.952C203.26 94.8027 203.19 94.5893 203.19 94.312ZM209.779 87.016C210.152 86.9947 210.542 86.968 210.947 86.936C211.363 86.904 211.875 86.888 212.483 86.888C213.539 86.888 214.296 87.0533 214.755 87.384C215.214 87.704 215.443 88.1947 215.443 88.856C215.443 89.2293 215.331 89.5973 215.107 89.96C214.894 90.312 214.536 90.5733 214.035 90.744V90.808C214.664 90.9253 215.107 91.144 215.363 91.464C215.619 91.784 215.747 92.2107 215.747 92.744C215.747 93.576 215.448 94.1787 214.851 94.552C214.254 94.9253 213.358 95.112 212.163 95.112C211.715 95.112 211.299 95.096 210.915 95.064C210.531 95.0427 210.152 95.016 209.779 94.984V87.016ZM211.059 93.928C211.262 93.9493 211.459 93.9653 211.651 93.976C211.854 93.9867 212.088 93.992 212.355 93.992C213.07 93.992 213.598 93.8907 213.939 93.688C214.291 93.4853 214.467 93.1387 214.467 92.648C214.467 92.264 214.318 91.9547 214.019 91.72C213.731 91.4747 213.214 91.352 212.467 91.352H211.059V93.928ZM212.627 90.376C212.819 90.376 213.006 90.344 213.187 90.28C213.368 90.216 213.528 90.1307 213.667 90.024C213.816 89.9067 213.934 89.7733 214.019 89.624C214.115 89.4747 214.163 89.3147 214.163 89.144C214.163 88.7173 214.035 88.424 213.779 88.264C213.523 88.0933 213.075 88.008 212.435 88.008C212.094 88.008 211.822 88.0133 211.619 88.024C211.427 88.0347 211.24 88.0453 211.059 88.056V90.376H212.627ZM217.315 91C217.315 89.6453 217.614 88.6107 218.211 87.896C218.819 87.1707 219.689 86.808 220.819 86.808C221.417 86.808 221.934 86.9093 222.371 87.112C222.819 87.304 223.187 87.5867 223.475 87.96C223.763 88.3227 223.977 88.7653 224.115 89.288C224.254 89.8 224.323 90.3707 224.323 91C224.323 92.3547 224.019 93.3947 223.411 94.12C222.814 94.8347 221.95 95.192 220.819 95.192C220.222 95.192 219.699 95.096 219.251 94.904C218.814 94.7013 218.451 94.4187 218.163 94.056C217.875 93.6827 217.662 93.24 217.523 92.728C217.385 92.2053 217.315 91.6293 217.315 91ZM218.643 91C218.643 91.4053 218.681 91.7947 218.755 92.168C218.841 92.5413 218.969 92.8667 219.139 93.144C219.31 93.4213 219.534 93.6453 219.811 93.816C220.089 93.9867 220.425 94.072 220.819 94.072C222.27 94.0827 222.995 93.0587 222.995 91C222.995 90.584 222.953 90.1893 222.867 89.816C222.793 89.4427 222.67 89.1173 222.499 88.84C222.329 88.5627 222.105 88.344 221.827 88.184C221.55 88.0133 221.214 87.928 220.819 87.928C219.369 87.9173 218.643 88.9413 218.643 91ZM227.109 91.432V90.392H228.229C228.421 90.392 228.608 90.36 228.789 90.296C228.981 90.232 229.152 90.1467 229.301 90.04C229.451 89.9227 229.568 89.7893 229.653 89.64C229.749 89.48 229.797 89.3147 229.797 89.144C229.797 88.728 229.653 88.4347 229.365 88.264C229.077 88.0933 228.645 88.008 228.069 88.008C227.653 88.008 227.269 88.072 226.917 88.2C226.576 88.328 226.309 88.4507 226.117 88.568L225.749 87.576C226.069 87.3947 226.443 87.2347 226.869 87.096C227.307 86.9573 227.824 86.888 228.421 86.888C230.192 86.888 231.077 87.544 231.077 88.856C231.077 89.2293 230.955 89.5973 230.709 89.96C230.475 90.312 230.133 90.5627 229.685 90.712V90.776C230.315 90.8933 230.752 91.1173 230.997 91.448C231.253 91.7787 231.381 92.216 231.381 92.76C231.381 93.1013 231.312 93.416 231.173 93.704C231.035 93.992 230.827 94.2427 230.549 94.456C230.272 94.6693 229.92 94.84 229.493 94.968C229.077 95.0853 228.592 95.144 228.037 95.144C227.493 95.144 227.04 95.096 226.677 95C226.325 94.904 226.005 94.7867 225.717 94.648L226.085 93.592C226.331 93.7307 226.624 93.8373 226.965 93.912C227.317 93.9867 227.696 94.024 228.101 94.024C228.752 94.024 229.248 93.912 229.589 93.688C229.931 93.464 230.101 93.1227 230.101 92.664C230.101 92.28 229.941 91.9813 229.621 91.768C229.301 91.544 228.773 91.432 228.037 91.432H227.109ZM233.404 87H234.284L234.524 87.96H234.588C234.833 87.5867 235.148 87.304 235.532 87.112C235.927 86.9093 236.375 86.808 236.876 86.808C237.943 86.808 238.737 87.1227 239.26 87.752C239.783 88.3813 240.044 89.4107 240.044 90.84C240.044 91.512 239.953 92.12 239.772 92.664C239.601 93.1973 239.356 93.6507 239.036 94.024C238.716 94.3973 238.327 94.6853 237.868 94.888C237.42 95.0907 236.919 95.192 236.364 95.192C235.969 95.192 235.655 95.1653 235.42 95.112C235.196 95.0693 234.951 94.9893 234.684 94.872V98.2H233.404V87ZM236.636 87.928C236.092 87.928 235.66 88.072 235.34 88.36C235.031 88.6373 234.812 89.064 234.684 89.64V93.608C234.876 93.7573 235.095 93.8747 235.34 93.96C235.585 94.0347 235.911 94.072 236.316 94.072C237.052 94.072 237.633 93.8 238.06 93.256C238.497 92.7013 238.716 91.8907 238.716 90.824C238.716 90.3867 238.679 89.992 238.604 89.64C238.529 89.2773 238.407 88.9733 238.236 88.728C238.076 88.472 237.863 88.2747 237.596 88.136C237.34 87.9973 237.02 87.928 236.636 87.928ZM241.932 87.592C242.337 87.3467 242.807 87.1653 243.34 87.048C243.884 86.9307 244.449 86.872 245.036 86.872C245.591 86.872 246.033 86.9467 246.364 87.096C246.705 87.2453 246.961 87.4427 247.132 87.688C247.313 87.9227 247.431 88.184 247.484 88.472C247.548 88.76 247.58 89.048 247.58 89.336C247.58 89.976 247.564 90.6 247.532 91.208C247.5 91.816 247.484 92.392 247.484 92.936C247.484 93.3307 247.5 93.704 247.532 94.056C247.564 94.408 247.623 94.7333 247.708 95.032H246.764L246.428 93.912H246.348C246.252 94.0613 246.129 94.2107 245.98 94.36C245.841 94.4987 245.671 94.6267 245.468 94.744C245.265 94.8507 245.031 94.9413 244.764 95.016C244.497 95.0907 244.193 95.128 243.852 95.128C243.511 95.128 243.191 95.0747 242.892 94.968C242.604 94.8613 242.353 94.712 242.14 94.52C241.927 94.3173 241.756 94.0773 241.628 93.8C241.511 93.5227 241.452 93.208 241.452 92.856C241.452 92.3867 241.548 91.9973 241.74 91.688C241.932 91.368 242.199 91.1173 242.54 90.936C242.892 90.744 243.308 90.6107 243.788 90.536C244.279 90.4507 244.817 90.408 245.404 90.408C245.553 90.408 245.697 90.408 245.836 90.408C245.985 90.408 246.135 90.4187 246.284 90.44C246.316 90.12 246.332 89.832 246.332 89.576C246.332 88.9893 246.215 88.5787 245.98 88.344C245.745 88.1093 245.319 87.992 244.7 87.992C244.519 87.992 244.321 88.008 244.108 88.04C243.905 88.0613 243.692 88.0987 243.468 88.152C243.255 88.1947 243.047 88.2533 242.844 88.328C242.652 88.392 242.481 88.4667 242.332 88.552L241.932 87.592ZM244.204 94.008C244.503 94.008 244.769 93.9707 245.004 93.896C245.239 93.8107 245.441 93.7093 245.612 93.592C245.783 93.464 245.921 93.3253 246.028 93.176C246.145 93.0267 246.231 92.8827 246.284 92.744V91.416C246.135 91.4053 245.98 91.4 245.82 91.4C245.671 91.3893 245.521 91.384 245.372 91.384C245.041 91.384 244.716 91.4053 244.396 91.448C244.087 91.48 243.809 91.5493 243.564 91.656C243.329 91.752 243.137 91.8907 242.988 92.072C242.849 92.2427 242.78 92.4613 242.78 92.728C242.78 93.1013 242.913 93.4107 243.18 93.656C243.447 93.8907 243.788 94.008 244.204 94.008ZM255.454 94.472C255.134 94.7067 254.755 94.8827 254.318 95C253.88 95.128 253.422 95.192 252.942 95.192C252.323 95.192 251.8 95.096 251.374 94.904C250.947 94.7013 250.595 94.4187 250.318 94.056C250.051 93.6827 249.854 93.24 249.726 92.728C249.608 92.2053 249.55 91.6293 249.55 91C249.55 89.6453 249.848 88.6107 250.446 87.896C251.043 87.1707 251.902 86.808 253.022 86.808C253.534 86.808 253.966 86.8507 254.318 86.936C254.68 87.0107 255.006 87.1227 255.294 87.272L254.926 88.376C254.68 88.2373 254.408 88.1307 254.11 88.056C253.811 87.9707 253.491 87.928 253.15 87.928C251.635 87.928 250.878 88.952 250.878 91C250.878 91.4053 250.915 91.7947 250.99 92.168C251.075 92.5307 251.208 92.856 251.39 93.144C251.582 93.4213 251.827 93.6453 252.126 93.816C252.435 93.9867 252.814 94.072 253.262 94.072C253.646 94.072 253.987 94.0133 254.286 93.896C254.595 93.7787 254.846 93.6453 255.038 93.496L255.454 94.472ZM262.054 88.12H259.558V95H258.278V88.12H255.782V87H262.054V88.12ZM55.248 111.4H54.512V115H53.232V107H54.512V110.616L55.2 110.392L57.76 107H59.152L56.672 110.216L56 110.744L56.832 111.384L59.504 115H57.92L55.248 111.4ZM60.2528 111C60.2528 109.645 60.5514 108.611 61.1488 107.896C61.7568 107.171 62.6261 106.808 63.7568 106.808C64.3541 106.808 64.8714 106.909 65.3088 107.112C65.7568 107.304 66.1248 107.587 66.4128 107.96C66.7008 108.323 66.9141 108.765 67.0528 109.288C67.1914 109.8 67.2608 110.371 67.2608 111C67.2608 112.355 66.9568 113.395 66.3488 114.12C65.7514 114.835 64.8874 115.192 63.7568 115.192C63.1594 115.192 62.6368 115.096 62.1888 114.904C61.7514 114.701 61.3888 114.419 61.1008 114.056C60.8128 113.683 60.5994 113.24 60.4608 112.728C60.3221 112.205 60.2528 111.629 60.2528 111ZM61.5807 111C61.5807 111.405 61.6181 111.795 61.6928 112.168C61.7781 112.541 61.9061 112.867 62.0768 113.144C62.2474 113.421 62.4714 113.645 62.7488 113.816C63.0261 113.987 63.3621 114.072 63.7568 114.072C65.2074 114.083 65.9328 113.059 65.9328 111C65.9328 110.584 65.8901 110.189 65.8048 109.816C65.7301 109.443 65.6074 109.117 65.4368 108.84C65.2661 108.563 65.0421 108.344 64.7648 108.184C64.4874 108.013 64.1514 107.928 63.7568 107.928C62.3061 107.917 61.5807 108.941 61.5807 111ZM74.1169 108.12H71.6209V115H70.3409V108.12H67.8449V107H74.1169V108.12ZM74.6903 111C74.6903 109.645 74.9889 108.611 75.5863 107.896C76.1943 107.171 77.0636 106.808 78.1943 106.808C78.7916 106.808 79.3089 106.909 79.7463 107.112C80.1943 107.304 80.5623 107.587 80.8503 107.96C81.1383 108.323 81.3516 108.765 81.4903 109.288C81.6289 109.8 81.6983 110.371 81.6983 111C81.6983 112.355 81.3943 113.395 80.7863 114.12C80.1889 114.835 79.3249 115.192 78.1943 115.192C77.5969 115.192 77.0743 115.096 76.6263 114.904C76.1889 114.701 75.8263 114.419 75.5383 114.056C75.2503 113.683 75.0369 113.24 74.8983 112.728C74.7596 112.205 74.6903 111.629 74.6903 111ZM76.0182 111C76.0182 111.405 76.0556 111.795 76.1303 112.168C76.2156 112.541 76.3436 112.867 76.5143 113.144C76.6849 113.421 76.9089 113.645 77.1863 113.816C77.4636 113.987 77.7996 114.072 78.1943 114.072C79.6449 114.083 80.3703 113.059 80.3703 111C80.3703 110.584 80.3276 110.189 80.2423 109.816C80.1676 109.443 80.0449 109.117 79.8743 108.84C79.7036 108.563 79.4796 108.344 79.2023 108.184C78.9249 108.013 78.5889 107.928 78.1943 107.928C76.7436 107.917 76.0182 108.941 76.0182 111ZM83.7164 107H84.5964L84.8364 107.96H84.9004C85.1457 107.587 85.4604 107.304 85.8444 107.112C86.239 106.909 86.687 106.808 87.1884 106.808C88.255 106.808 89.0497 107.123 89.5724 107.752C90.095 108.381 90.3564 109.411 90.3564 110.84C90.3564 111.512 90.2657 112.12 90.0844 112.664C89.9137 113.197 89.6684 113.651 89.3484 114.024C89.0284 114.397 88.639 114.685 88.1804 114.888C87.7324 115.091 87.231 115.192 86.6764 115.192C86.2817 115.192 85.967 115.165 85.7324 115.112C85.5084 115.069 85.263 114.989 84.9964 114.872V118.2H83.7164V107ZM86.9484 107.928C86.4044 107.928 85.9724 108.072 85.6524 108.36C85.343 108.637 85.1244 109.064 84.9964 109.64V113.608C85.1884 113.757 85.407 113.875 85.6524 113.96C85.8977 114.035 86.223 114.072 86.6284 114.072C87.3644 114.072 87.9457 113.8 88.3724 113.256C88.8097 112.701 89.0284 111.891 89.0284 110.824C89.0284 110.387 88.991 109.992 88.9164 109.64C88.8417 109.277 88.719 108.973 88.5484 108.728C88.3884 108.472 88.175 108.275 87.9084 108.136C87.6524 107.997 87.3324 107.928 86.9484 107.928ZM93.6526 113.88C94.0473 113.944 94.426 113.976 94.7886 113.976C95.4606 113.976 95.93 113.848 96.1966 113.592C96.4633 113.325 96.5966 112.952 96.5966 112.472C96.5966 112.045 96.4633 111.693 96.1966 111.416C95.9406 111.139 95.4873 111 94.8366 111C94.6553 111 94.458 111.005 94.2446 111.016C94.0313 111.027 93.834 111.059 93.6526 111.112V113.88ZM93.6526 110.056C93.9086 110.013 94.154 109.987 94.3886 109.976C94.6233 109.955 94.8473 109.944 95.0606 109.944C95.6046 109.944 96.058 110.008 96.4206 110.136C96.794 110.253 97.0926 110.419 97.3166 110.632C97.5406 110.845 97.6953 111.101 97.7806 111.4C97.8766 111.688 97.9246 111.997 97.9246 112.328C97.9246 113.299 97.6526 114.003 97.1086 114.44C96.5753 114.877 95.706 115.096 94.5006 115.096C93.818 115.096 93.1086 115.064 92.3726 115V107H93.6526V110.056ZM99.1886 107H100.469V115H99.1886V107ZM105.031 110.904L102.343 107H103.911L105.431 109.208L105.879 110.12L106.343 109.208L107.895 107H109.335L106.631 110.84L109.495 115H107.975L106.279 112.568L105.799 111.608L105.303 112.568L103.575 115H102.151L105.031 110.904ZM114.55 111C114.55 109.645 114.848 108.611 115.446 107.896C116.054 107.171 116.923 106.808 118.054 106.808C118.651 106.808 119.168 106.909 119.606 107.112C120.054 107.304 120.422 107.587 120.71 107.96C120.998 108.323 121.211 108.765 121.35 109.288C121.488 109.8 121.558 110.371 121.558 111C121.558 112.355 121.254 113.395 120.646 114.12C120.048 114.835 119.184 115.192 118.054 115.192C117.456 115.192 116.934 115.096 116.486 114.904C116.048 114.701 115.686 114.419 115.398 114.056C115.11 113.683 114.896 113.24 114.758 112.728C114.619 112.205 114.55 111.629 114.55 111ZM115.878 111C115.878 111.405 115.915 111.795 115.99 112.168C116.075 112.541 116.203 112.867 116.374 113.144C116.544 113.421 116.768 113.645 117.046 113.816C117.323 113.987 117.659 114.072 118.054 114.072C119.504 114.083 120.23 113.059 120.23 111C120.23 110.584 120.187 110.189 120.102 109.816C120.027 109.443 119.904 109.117 119.734 108.84C119.563 108.563 119.339 108.344 119.062 108.184C118.784 108.013 118.448 107.928 118.054 107.928C116.603 107.917 115.878 108.941 115.878 111ZM128.414 108.12H125.918V115H124.638V108.12H122.142V107H128.414V108.12ZM140.091 111.624C140.091 112.115 140.016 112.579 139.867 113.016C139.717 113.443 139.499 113.821 139.211 114.152C138.923 114.472 138.565 114.728 138.139 114.92C137.712 115.101 137.227 115.192 136.683 115.192C136.149 115.192 135.669 115.107 135.243 114.936C134.816 114.765 134.448 114.515 134.139 114.184C133.829 113.843 133.589 113.427 133.419 112.936C133.259 112.445 133.179 111.88 133.179 111.24C133.179 110.184 133.312 109.213 133.579 108.328C133.856 107.432 134.235 106.653 134.715 105.992C135.195 105.331 135.76 104.797 136.411 104.392C137.072 103.976 137.787 103.715 138.555 103.608L138.827 104.632C138.229 104.739 137.685 104.941 137.195 105.24C136.704 105.539 136.272 105.907 135.899 106.344C135.536 106.781 135.237 107.272 135.003 107.816C134.768 108.36 134.608 108.92 134.523 109.496C134.693 109.208 134.981 108.947 135.387 108.712C135.792 108.467 136.288 108.344 136.875 108.344C137.877 108.344 138.661 108.632 139.227 109.208C139.803 109.784 140.091 110.589 140.091 111.624ZM138.763 111.752C138.763 110.995 138.587 110.424 138.235 110.04C137.883 109.656 137.339 109.464 136.603 109.464C136.08 109.464 135.627 109.592 135.243 109.848C134.869 110.104 134.608 110.392 134.459 110.712C134.437 110.861 134.427 110.984 134.427 111.08C134.427 111.176 134.427 111.283 134.427 111.4C134.427 111.731 134.469 112.056 134.555 112.376C134.651 112.696 134.795 112.984 134.987 113.24C135.179 113.485 135.413 113.688 135.691 113.848C135.979 113.997 136.315 114.072 136.699 114.072C137.008 114.072 137.285 114.013 137.531 113.896C137.787 113.779 138.005 113.619 138.187 113.416C138.368 113.213 138.507 112.968 138.603 112.68C138.709 112.392 138.763 112.083 138.763 111.752ZM153.101 117.032H152.237L151.997 115H145.981L145.741 117.032H144.877V113.88H145.821C145.906 113.763 146.018 113.555 146.157 113.256C146.296 112.947 146.429 112.52 146.557 111.976C146.696 111.421 146.813 110.739 146.909 109.928C147.016 109.107 147.08 108.131 147.101 107H151.933V113.88H153.101V117.032ZM150.653 113.88V108.12H148.253C148.232 108.568 148.194 109.059 148.141 109.592C148.088 110.115 148.013 110.643 147.917 111.176C147.832 111.699 147.72 112.195 147.581 112.664C147.442 113.133 147.282 113.539 147.101 113.88H150.653ZM154.237 111C154.237 109.645 154.536 108.611 155.133 107.896C155.741 107.171 156.61 106.808 157.741 106.808C158.338 106.808 158.856 106.909 159.293 107.112C159.741 107.304 160.109 107.587 160.397 107.96C160.685 108.323 160.898 108.765 161.037 109.288C161.176 109.8 161.245 110.371 161.245 111C161.245 112.355 160.941 113.395 160.333 114.12C159.736 114.835 158.872 115.192 157.741 115.192C157.144 115.192 156.621 115.096 156.173 114.904C155.736 114.701 155.373 114.419 155.085 114.056C154.797 113.683 154.584 113.24 154.445 112.728C154.306 112.205 154.237 111.629 154.237 111ZM155.565 111C155.565 111.405 155.602 111.795 155.677 112.168C155.762 112.541 155.89 112.867 156.061 113.144C156.232 113.421 156.456 113.645 156.733 113.816C157.01 113.987 157.346 114.072 157.741 114.072C159.192 114.083 159.917 113.059 159.917 111C159.917 110.584 159.874 110.189 159.789 109.816C159.714 109.443 159.592 109.117 159.421 108.84C159.25 108.563 159.026 108.344 158.749 108.184C158.472 108.013 158.136 107.928 157.741 107.928C156.29 107.917 155.565 108.941 155.565 111ZM168.025 113.816H170.265V106.072L170.425 105.128L169.785 105.88L168.025 107.144L167.417 106.328L170.937 103.608H171.513V113.816H173.705V115H168.025V113.816ZM176.104 112.328C176.104 111.656 176.28 111.075 176.632 110.584C176.984 110.083 177.533 109.629 178.28 109.224C178.013 109.064 177.762 108.899 177.528 108.728C177.304 108.547 177.101 108.344 176.92 108.12C176.749 107.896 176.61 107.645 176.504 107.368C176.408 107.091 176.36 106.771 176.36 106.408C176.36 105.992 176.429 105.613 176.568 105.272C176.717 104.931 176.925 104.637 177.192 104.392C177.469 104.147 177.794 103.955 178.168 103.816C178.552 103.677 178.984 103.608 179.464 103.608C179.912 103.608 180.317 103.672 180.68 103.8C181.042 103.928 181.346 104.104 181.592 104.328C181.848 104.552 182.045 104.819 182.184 105.128C182.322 105.437 182.392 105.779 182.392 106.152C182.392 106.76 182.253 107.299 181.976 107.768C181.698 108.227 181.24 108.68 180.6 109.128C180.877 109.288 181.138 109.464 181.384 109.656C181.64 109.848 181.858 110.061 182.04 110.296C182.232 110.531 182.381 110.797 182.488 111.096C182.594 111.384 182.648 111.715 182.648 112.088C182.648 112.547 182.573 112.968 182.424 113.352C182.274 113.725 182.056 114.051 181.768 114.328C181.48 114.595 181.128 114.808 180.712 114.968C180.296 115.117 179.821 115.192 179.288 115.192C178.776 115.192 178.322 115.117 177.928 114.968C177.533 114.819 177.197 114.616 176.92 114.36C176.653 114.104 176.45 113.805 176.312 113.464C176.173 113.112 176.104 112.733 176.104 112.328ZM181.4 112.168C181.4 111.848 181.336 111.571 181.208 111.336C181.08 111.091 180.909 110.872 180.696 110.68C180.493 110.477 180.258 110.296 179.992 110.136C179.725 109.976 179.448 109.821 179.16 109.672C178.509 110.035 178.045 110.44 177.768 110.888C177.49 111.336 177.352 111.763 177.352 112.168C177.352 112.424 177.394 112.669 177.48 112.904C177.565 113.139 177.693 113.341 177.864 113.512C178.034 113.683 178.242 113.821 178.488 113.928C178.744 114.024 179.037 114.072 179.368 114.072C179.634 114.072 179.89 114.035 180.136 113.96C180.381 113.875 180.594 113.757 180.776 113.608C180.968 113.448 181.117 113.251 181.224 113.016C181.341 112.771 181.4 112.488 181.4 112.168ZM177.608 106.376C177.608 106.675 177.666 106.941 177.784 107.176C177.901 107.4 178.056 107.603 178.248 107.784C178.45 107.965 178.68 108.136 178.936 108.296C179.192 108.445 179.458 108.589 179.736 108.728C180.216 108.355 180.568 107.987 180.792 107.624C181.026 107.261 181.144 106.861 181.144 106.424C181.144 105.88 180.973 105.464 180.632 105.176C180.301 104.877 179.901 104.728 179.432 104.728C179.144 104.728 178.888 104.776 178.664 104.872C178.44 104.968 178.248 105.091 178.088 105.24C177.928 105.389 177.805 105.565 177.72 105.768C177.645 105.96 177.608 106.163 177.608 106.376ZM193.13 108.12H190.81C190.778 108.568 190.746 109.053 190.714 109.576C190.682 110.088 190.634 110.605 190.57 111.128C190.506 111.64 190.42 112.136 190.314 112.616C190.207 113.085 190.068 113.501 189.898 113.864C189.738 114.227 189.535 114.52 189.29 114.744C189.055 114.957 188.772 115.064 188.442 115.064C188.239 115.064 188.063 115.053 187.914 115.032C187.764 115.011 187.631 114.973 187.514 114.92L187.706 113.848C187.834 113.891 187.972 113.912 188.122 113.912C188.335 113.912 188.527 113.821 188.698 113.64C188.868 113.459 189.018 113.117 189.146 112.616C189.274 112.104 189.38 111.4 189.466 110.504C189.551 109.608 189.61 108.44 189.642 107H194.41V115H193.13V108.12ZM202.713 114.36C202.393 114.616 201.987 114.819 201.497 114.968C201.017 115.117 200.505 115.192 199.961 115.192C199.353 115.192 198.825 115.096 198.377 114.904C197.929 114.701 197.561 114.419 197.273 114.056C196.985 113.683 196.771 113.24 196.633 112.728C196.494 112.216 196.425 111.64 196.425 111C196.425 109.635 196.729 108.595 197.337 107.88C197.945 107.165 198.814 106.808 199.945 106.808C200.307 106.808 200.67 106.851 201.033 106.936C201.395 107.011 201.721 107.16 202.009 107.384C202.297 107.608 202.531 107.928 202.713 108.344C202.894 108.749 202.985 109.288 202.985 109.96C202.985 110.312 202.953 110.701 202.889 111.128H197.753C197.753 111.597 197.801 112.013 197.897 112.376C197.993 112.739 198.142 113.048 198.345 113.304C198.547 113.549 198.809 113.741 199.129 113.88C199.459 114.008 199.859 114.072 200.329 114.072C200.691 114.072 201.054 114.008 201.417 113.88C201.779 113.752 202.051 113.603 202.233 113.432L202.713 114.36ZM199.961 107.928C199.331 107.928 198.825 108.093 198.441 108.424C198.067 108.755 197.843 109.32 197.769 110.12H201.737C201.737 109.309 201.582 108.744 201.273 108.424C200.963 108.093 200.526 107.928 199.961 107.928ZM210.086 108.12H207.59V115H206.31V108.12H203.814V107H210.086V108.12ZM209.659 114.264C209.659 113.976 209.739 113.752 209.899 113.592C210.07 113.421 210.294 113.336 210.571 113.336C210.859 113.336 211.088 113.421 211.259 113.592C211.43 113.752 211.515 113.976 211.515 114.264C211.515 114.541 211.43 114.765 211.259 114.936C211.088 115.107 210.859 115.192 210.571 115.192C210.294 115.192 210.07 115.107 209.899 114.936C209.739 114.765 209.659 114.541 209.659 114.264ZM225.131 117.064H224.219L223.979 115H216.123L215.883 117.064H214.955V113.816H216.091C216.176 113.699 216.304 113.427 216.475 113C216.656 112.563 216.832 111.944 217.003 111.144C217.184 110.333 217.344 109.325 217.483 108.12C217.622 106.904 217.691 105.464 217.691 103.8H223.675V113.816H225.131V117.064ZM222.347 113.816V104.984H218.939C218.907 106.157 218.843 107.213 218.747 108.152C218.662 109.091 218.555 109.923 218.427 110.648C218.299 111.363 218.155 111.981 217.995 112.504C217.835 113.027 217.67 113.464 217.499 113.816H222.347ZM232.275 114.36C231.955 114.616 231.55 114.819 231.059 114.968C230.579 115.117 230.067 115.192 229.523 115.192C228.915 115.192 228.387 115.096 227.939 114.904C227.491 114.701 227.123 114.419 226.835 114.056C226.547 113.683 226.334 113.24 226.195 112.728C226.056 112.216 225.987 111.64 225.987 111C225.987 109.635 226.291 108.595 226.899 107.88C227.507 107.165 228.376 106.808 229.507 106.808C229.87 106.808 230.232 106.851 230.595 106.936C230.958 107.011 231.283 107.16 231.571 107.384C231.859 107.608 232.094 107.928 232.275 108.344C232.456 108.749 232.547 109.288 232.547 109.96C232.547 110.312 232.515 110.701 232.451 111.128H227.315C227.315 111.597 227.363 112.013 227.459 112.376C227.555 112.739 227.704 113.048 227.907 113.304C228.11 113.549 228.371 113.741 228.691 113.88C229.022 114.008 229.422 114.072 229.891 114.072C230.254 114.072 230.616 114.008 230.979 113.88C231.342 113.752 231.614 113.603 231.795 113.432L232.275 114.36ZM229.523 107.928C228.894 107.928 228.387 108.093 228.003 108.424C227.63 108.755 227.406 109.32 227.331 110.12H231.299C231.299 109.309 231.144 108.744 230.835 108.424C230.526 108.093 230.088 107.928 229.523 107.928ZM239.648 108.12H237.152V115H235.872V108.12H233.376V107H239.648V108.12ZM245.912 110.264L245.96 109.272H245.912L245.256 110.296L241.656 115H240.92V107H242.2V111.88L242.152 112.824H242.216L242.84 111.832L246.44 107H247.192V115H245.912V110.264ZM60.304 137.032H59.44L59.2 135H53.184L52.944 137.032H52.08V133.88H53.024C53.1093 133.763 53.2213 133.555 53.36 133.256C53.4987 132.947 53.632 132.52 53.76 131.976C53.8987 131.421 54.016 130.739 54.112 129.928C54.2187 129.107 54.2827 128.131 54.304 127H59.136V133.88H60.304V137.032ZM57.856 133.88V128.12H55.456C55.4347 128.568 55.3973 129.059 55.344 129.592C55.2907 130.115 55.216 130.643 55.12 131.176C55.0347 131.699 54.9227 132.195 54.784 132.664C54.6453 133.133 54.4853 133.539 54.304 133.88H57.856ZM61.4403 131C61.4403 129.645 61.7389 128.611 62.3363 127.896C62.9443 127.171 63.8136 126.808 64.9443 126.808C65.5416 126.808 66.0589 126.909 66.4963 127.112C66.9443 127.304 67.3123 127.587 67.6003 127.96C67.8883 128.323 68.1016 128.765 68.2403 129.288C68.3789 129.8 68.4483 130.371 68.4483 131C68.4483 132.355 68.1443 133.395 67.5363 134.12C66.9389 134.835 66.0749 135.192 64.9443 135.192C64.3469 135.192 63.8243 135.096 63.3763 134.904C62.9389 134.701 62.5763 134.419 62.2883 134.056C62.0003 133.683 61.7869 133.24 61.6483 132.728C61.5096 132.205 61.4403 131.629 61.4403 131ZM62.7682 131C62.7682 131.405 62.8056 131.795 62.8803 132.168C62.9656 132.541 63.0936 132.867 63.2643 133.144C63.4349 133.421 63.6589 133.645 63.9363 133.816C64.2136 133.987 64.5496 134.072 64.9443 134.072C66.3949 134.083 67.1203 133.059 67.1203 131C67.1203 130.584 67.0776 130.189 66.9923 129.816C66.9176 129.443 66.7949 129.117 66.6243 128.84C66.4536 128.563 66.2296 128.344 65.9523 128.184C65.6749 128.013 65.3389 127.928 64.9443 127.928C63.4936 127.917 62.7682 128.941 62.7682 131ZM81.372 131.624C81.372 132.115 81.2973 132.579 81.148 133.016C80.9987 133.443 80.78 133.821 80.492 134.152C80.204 134.472 79.8467 134.728 79.42 134.92C78.9933 135.101 78.508 135.192 77.964 135.192C77.4307 135.192 76.9507 135.107 76.524 134.936C76.0973 134.765 75.7293 134.515 75.42 134.184C75.1107 133.843 74.8707 133.427 74.7 132.936C74.54 132.445 74.46 131.88 74.46 131.24C74.46 130.184 74.5933 129.213 74.86 128.328C75.1373 127.432 75.516 126.653 75.996 125.992C76.476 125.331 77.0413 124.797 77.692 124.392C78.3533 123.976 79.068 123.715 79.836 123.608L80.108 124.632C79.5107 124.739 78.9667 124.941 78.476 125.24C77.9853 125.539 77.5533 125.907 77.18 126.344C76.8173 126.781 76.5187 127.272 76.284 127.816C76.0493 128.36 75.8893 128.92 75.804 129.496C75.9747 129.208 76.2627 128.947 76.668 128.712C77.0733 128.467 77.5693 128.344 78.156 128.344C79.1587 128.344 79.9427 128.632 80.508 129.208C81.084 129.784 81.372 130.589 81.372 131.624ZM80.044 131.752C80.044 130.995 79.868 130.424 79.516 130.04C79.164 129.656 78.62 129.464 77.884 129.464C77.3613 129.464 76.908 129.592 76.524 129.848C76.1507 130.104 75.8893 130.392 75.74 130.712C75.7187 130.861 75.708 130.984 75.708 131.08C75.708 131.176 75.708 131.283 75.708 131.4C75.708 131.731 75.7507 132.056 75.836 132.376C75.932 132.696 76.076 132.984 76.268 133.24C76.46 133.485 76.6947 133.688 76.972 133.848C77.26 133.997 77.596 134.072 77.98 134.072C78.2893 134.072 78.5667 134.013 78.812 133.896C79.068 133.779 79.2867 133.619 79.468 133.416C79.6493 133.213 79.788 132.968 79.884 132.68C79.9907 132.392 80.044 132.083 80.044 131.752ZM91.6141 128.12H89.2941C89.2621 128.568 89.2301 129.053 89.1981 129.576C89.1661 130.088 89.1181 130.605 89.0541 131.128C88.9901 131.64 88.9048 132.136 88.7981 132.616C88.6915 133.085 88.5528 133.501 88.3821 133.864C88.2221 134.227 88.0195 134.52 87.7741 134.744C87.5395 134.957 87.2568 135.064 86.9261 135.064C86.7235 135.064 86.5475 135.053 86.3981 135.032C86.2488 135.011 86.1155 134.973 85.9981 134.92L86.1901 133.848C86.3181 133.891 86.4568 133.912 86.6061 133.912C86.8195 133.912 87.0115 133.821 87.1821 133.64C87.3528 133.459 87.5021 133.117 87.6301 132.616C87.7581 132.104 87.8648 131.4 87.9501 130.504C88.0355 129.608 88.0941 128.44 88.1261 127H92.8941V135H91.6141V128.12ZM101.197 134.36C100.877 134.616 100.472 134.819 99.981 134.968C99.501 135.117 98.989 135.192 98.445 135.192C97.837 135.192 97.309 135.096 96.861 134.904C96.413 134.701 96.045 134.419 95.757 134.056C95.469 133.683 95.2557 133.24 95.117 132.728C94.9783 132.216 94.909 131.64 94.909 131C94.909 129.635 95.213 128.595 95.821 127.88C96.429 127.165 97.2983 126.808 98.429 126.808C98.7917 126.808 99.1543 126.851 99.517 126.936C99.8797 127.011 100.205 127.16 100.493 127.384C100.781 127.608 101.016 127.928 101.197 128.344C101.378 128.749 101.469 129.288 101.469 129.96C101.469 130.312 101.437 130.701 101.373 131.128H96.237C96.237 131.597 96.285 132.013 96.381 132.376C96.477 132.739 96.6263 133.048 96.829 133.304C97.0317 133.549 97.293 133.741 97.613 133.88C97.9437 134.008 98.3437 134.072 98.813 134.072C99.1757 134.072 99.5383 134.008 99.901 133.88C100.264 133.752 100.536 133.603 100.717 133.432L101.197 134.36ZM98.445 127.928C97.8157 127.928 97.309 128.093 96.925 128.424C96.5517 128.755 96.3277 129.32 96.253 130.12H100.221C100.221 129.309 100.066 128.744 99.757 128.424C99.4477 128.093 99.0103 127.928 98.445 127.928ZM108.57 128.12H106.074V135H104.794V128.12H102.298V127H108.57V128.12ZM113.607 127H114.487L114.727 127.96H114.791C115.036 127.587 115.351 127.304 115.735 127.112C116.13 126.909 116.578 126.808 117.079 126.808C118.146 126.808 118.94 127.123 119.463 127.752C119.986 128.381 120.247 129.411 120.247 130.84C120.247 131.512 120.156 132.12 119.975 132.664C119.804 133.197 119.559 133.651 119.239 134.024C118.919 134.397 118.53 134.685 118.071 134.888C117.623 135.091 117.122 135.192 116.567 135.192C116.172 135.192 115.858 135.165 115.623 135.112C115.399 135.069 115.154 134.989 114.887 134.872V138.2H113.607V127ZM116.839 127.928C116.295 127.928 115.863 128.072 115.543 128.36C115.234 128.637 115.015 129.064 114.887 129.64V133.608C115.079 133.757 115.298 133.875 115.543 133.96C115.788 134.035 116.114 134.072 116.519 134.072C117.255 134.072 117.836 133.8 118.263 133.256C118.7 132.701 118.919 131.891 118.919 130.824C118.919 130.387 118.882 129.992 118.807 129.64C118.732 129.277 118.61 128.973 118.439 128.728C118.279 128.472 118.066 128.275 117.799 128.136C117.543 127.997 117.223 127.928 116.839 127.928ZM122.135 127.592C122.541 127.347 123.01 127.165 123.543 127.048C124.087 126.931 124.653 126.872 125.239 126.872C125.794 126.872 126.237 126.947 126.567 127.096C126.909 127.245 127.165 127.443 127.335 127.688C127.517 127.923 127.634 128.184 127.687 128.472C127.751 128.76 127.783 129.048 127.783 129.336C127.783 129.976 127.767 130.6 127.735 131.208C127.703 131.816 127.687 132.392 127.687 132.936C127.687 133.331 127.703 133.704 127.735 134.056C127.767 134.408 127.826 134.733 127.911 135.032H126.967L126.631 133.912H126.551C126.455 134.061 126.333 134.211 126.183 134.36C126.045 134.499 125.874 134.627 125.671 134.744C125.469 134.851 125.234 134.941 124.967 135.016C124.701 135.091 124.397 135.128 124.055 135.128C123.714 135.128 123.394 135.075 123.095 134.968C122.807 134.861 122.557 134.712 122.343 134.52C122.13 134.317 121.959 134.077 121.831 133.8C121.714 133.523 121.655 133.208 121.655 132.856C121.655 132.387 121.751 131.997 121.943 131.688C122.135 131.368 122.402 131.117 122.743 130.936C123.095 130.744 123.511 130.611 123.991 130.536C124.482 130.451 125.021 130.408 125.607 130.408C125.757 130.408 125.901 130.408 126.039 130.408C126.189 130.408 126.338 130.419 126.487 130.44C126.519 130.12 126.535 129.832 126.535 129.576C126.535 128.989 126.418 128.579 126.183 128.344C125.949 128.109 125.522 127.992 124.903 127.992C124.722 127.992 124.525 128.008 124.311 128.04C124.109 128.061 123.895 128.099 123.671 128.152C123.458 128.195 123.25 128.253 123.047 128.328C122.855 128.392 122.685 128.467 122.535 128.552L122.135 127.592ZM124.407 134.008C124.706 134.008 124.973 133.971 125.207 133.896C125.442 133.811 125.645 133.709 125.815 133.592C125.986 133.464 126.125 133.325 126.231 133.176C126.349 133.027 126.434 132.883 126.487 132.744V131.416C126.338 131.405 126.183 131.4 126.023 131.4C125.874 131.389 125.725 131.384 125.575 131.384C125.245 131.384 124.919 131.405 124.599 131.448C124.29 131.48 124.013 131.549 123.767 131.656C123.533 131.752 123.341 131.891 123.191 132.072C123.053 132.243 122.983 132.461 122.983 132.728C122.983 133.101 123.117 133.411 123.383 133.656C123.65 133.891 123.991 134.008 124.407 134.008ZM130.969 131.432V130.392H132.089C132.281 130.392 132.467 130.36 132.649 130.296C132.841 130.232 133.011 130.147 133.161 130.04C133.31 129.923 133.427 129.789 133.513 129.64C133.609 129.48 133.657 129.315 133.657 129.144C133.657 128.728 133.513 128.435 133.225 128.264C132.937 128.093 132.505 128.008 131.929 128.008C131.513 128.008 131.129 128.072 130.777 128.2C130.435 128.328 130.169 128.451 129.977 128.568L129.609 127.576C129.929 127.395 130.302 127.235 130.729 127.096C131.166 126.957 131.683 126.888 132.281 126.888C134.051 126.888 134.937 127.544 134.937 128.856C134.937 129.229 134.814 129.597 134.569 129.96C134.334 130.312 133.993 130.563 133.545 130.712V130.776C134.174 130.893 134.611 131.117 134.857 131.448C135.113 131.779 135.241 132.216 135.241 132.76C135.241 133.101 135.171 133.416 135.033 133.704C134.894 133.992 134.686 134.243 134.409 134.456C134.131 134.669 133.779 134.84 133.353 134.968C132.937 135.085 132.451 135.144 131.897 135.144C131.353 135.144 130.899 135.096 130.537 135C130.185 134.904 129.865 134.787 129.577 134.648L129.945 133.592C130.19 133.731 130.483 133.837 130.825 133.912C131.177 133.987 131.555 134.024 131.961 134.024C132.611 134.024 133.107 133.912 133.449 133.688C133.79 133.464 133.961 133.123 133.961 132.664C133.961 132.28 133.801 131.981 133.481 131.768C133.161 131.544 132.633 131.432 131.897 131.432H130.969ZM143.871 130.248L143.967 128.728H143.887L143.311 129.96L141.375 133.096H140.927L138.911 129.96L138.383 128.728H138.319L138.447 130.232V135H137.263V127H138.527L140.767 130.584L141.231 131.512H141.263L141.743 130.552L143.839 127H145.119V135H143.871V130.248ZM153.416 134.36C153.096 134.616 152.69 134.819 152.2 134.968C151.72 135.117 151.208 135.192 150.664 135.192C150.056 135.192 149.528 135.096 149.08 134.904C148.632 134.701 148.264 134.419 147.976 134.056C147.688 133.683 147.474 133.24 147.336 132.728C147.197 132.216 147.128 131.64 147.128 131C147.128 129.635 147.432 128.595 148.04 127.88C148.648 127.165 149.517 126.808 150.648 126.808C151.01 126.808 151.373 126.851 151.736 126.936C152.098 127.011 152.424 127.16 152.712 127.384C153 127.608 153.234 127.928 153.416 128.344C153.597 128.749 153.688 129.288 153.688 129.96C153.688 130.312 153.656 130.701 153.592 131.128H148.456C148.456 131.597 148.504 132.013 148.6 132.376C148.696 132.739 148.845 133.048 149.048 133.304C149.25 133.549 149.512 133.741 149.832 133.88C150.162 134.008 150.562 134.072 151.032 134.072C151.394 134.072 151.757 134.008 152.12 133.88C152.482 133.752 152.754 133.603 152.936 133.432L153.416 134.36ZM150.664 127.928C150.034 127.928 149.528 128.093 149.144 128.424C148.77 128.755 148.546 129.32 148.472 130.12H152.44C152.44 129.309 152.285 128.744 151.976 128.424C151.666 128.093 151.229 127.928 150.664 127.928ZM166.165 137.08H165.301L165.061 135H155.701V127H156.981V133.88H159.717V127H160.997V133.88H163.733V127H165.013V133.88H166.165V137.08ZM167.62 127.592C168.025 127.347 168.494 127.165 169.028 127.048C169.572 126.931 170.137 126.872 170.724 126.872C171.278 126.872 171.721 126.947 172.052 127.096C172.393 127.245 172.649 127.443 172.82 127.688C173.001 127.923 173.118 128.184 173.172 128.472C173.236 128.76 173.268 129.048 173.268 129.336C173.268 129.976 173.252 130.6 173.22 131.208C173.188 131.816 173.172 132.392 173.172 132.936C173.172 133.331 173.188 133.704 173.22 134.056C173.252 134.408 173.31 134.733 173.396 135.032H172.452L172.116 133.912H172.036C171.94 134.061 171.817 134.211 171.668 134.36C171.529 134.499 171.358 134.627 171.156 134.744C170.953 134.851 170.718 134.941 170.452 135.016C170.185 135.091 169.881 135.128 169.54 135.128C169.198 135.128 168.878 135.075 168.58 134.968C168.292 134.861 168.041 134.712 167.828 134.52C167.614 134.317 167.444 134.077 167.316 133.8C167.198 133.523 167.14 133.208 167.14 132.856C167.14 132.387 167.236 131.997 167.428 131.688C167.62 131.368 167.886 131.117 168.228 130.936C168.58 130.744 168.996 130.611 169.476 130.536C169.966 130.451 170.505 130.408 171.092 130.408C171.241 130.408 171.385 130.408 171.524 130.408C171.673 130.408 171.822 130.419 171.972 130.44C172.004 130.12 172.02 129.832 172.02 129.576C172.02 128.989 171.902 128.579 171.668 128.344C171.433 128.109 171.006 127.992 170.388 127.992C170.206 127.992 170.009 128.008 169.796 128.04C169.593 128.061 169.38 128.099 169.156 128.152C168.942 128.195 168.734 128.253 168.532 128.328C168.34 128.392 168.169 128.467 168.02 128.552L167.62 127.592ZM169.892 134.008C170.19 134.008 170.457 133.971 170.692 133.896C170.926 133.811 171.129 133.709 171.3 133.592C171.47 133.464 171.609 133.325 171.716 133.176C171.833 133.027 171.918 132.883 171.972 132.744V131.416C171.822 131.405 171.668 131.4 171.508 131.4C171.358 131.389 171.209 131.384 171.06 131.384C170.729 131.384 170.404 131.405 170.084 131.448C169.774 131.48 169.497 131.549 169.252 131.656C169.017 131.752 168.825 131.891 168.676 132.072C168.537 132.243 168.468 132.461 168.468 132.728C168.468 133.101 168.601 133.411 168.868 133.656C169.134 133.891 169.476 134.008 169.892 134.008ZM181.893 135.192C181.317 135.192 180.821 135.107 180.405 134.936C180 134.755 179.664 134.504 179.397 134.184C179.141 133.853 178.944 133.459 178.805 133C178.677 132.531 178.597 132.019 178.565 131.464H176.965V135H175.685V127H176.965V130.344H178.581C178.666 129.203 178.976 128.328 179.509 127.72C180.053 127.112 180.858 126.808 181.925 126.808C182.512 126.808 183.008 126.909 183.413 127.112C183.829 127.304 184.165 127.587 184.421 127.96C184.688 128.323 184.88 128.765 184.997 129.288C185.114 129.8 185.173 130.371 185.173 131C185.173 132.355 184.901 133.395 184.357 134.12C183.824 134.835 183.002 135.192 181.893 135.192ZM179.829 131C179.829 131.416 179.861 131.811 179.925 132.184C179.989 132.557 180.101 132.888 180.261 133.176C180.421 133.453 180.634 133.672 180.901 133.832C181.178 133.992 181.52 134.072 181.925 134.072C182.608 134.072 183.098 133.827 183.397 133.336C183.696 132.835 183.845 132.056 183.845 131C183.845 130.584 183.813 130.189 183.749 129.816C183.696 129.443 183.594 129.117 183.445 128.84C183.296 128.552 183.098 128.328 182.853 128.168C182.608 128.008 182.293 127.928 181.909 127.928C181.173 127.928 180.64 128.179 180.309 128.68C179.989 129.171 179.829 129.944 179.829 131ZM192.023 128.12H189.527V135H188.247V128.12H185.751V127H192.023V128.12ZM198.501 134.472C198.181 134.707 197.802 134.883 197.365 135C196.927 135.128 196.469 135.192 195.989 135.192C195.37 135.192 194.847 135.096 194.421 134.904C193.994 134.701 193.642 134.419 193.365 134.056C193.098 133.683 192.901 133.24 192.773 132.728C192.655 132.205 192.597 131.629 192.597 131C192.597 129.645 192.895 128.611 193.493 127.896C194.09 127.171 194.949 126.808 196.069 126.808C196.581 126.808 197.013 126.851 197.365 126.936C197.727 127.011 198.053 127.123 198.341 127.272L197.973 128.376C197.727 128.237 197.455 128.131 197.157 128.056C196.858 127.971 196.538 127.928 196.197 127.928C194.682 127.928 193.924 128.952 193.924 131C193.924 131.405 193.962 131.795 194.037 132.168C194.122 132.531 194.255 132.856 194.437 133.144C194.629 133.421 194.874 133.645 195.173 133.816C195.482 133.987 195.861 134.072 196.309 134.072C196.693 134.072 197.034 134.013 197.333 133.896C197.642 133.779 197.893 133.645 198.085 133.496L198.501 134.472ZM204.247 131.688L203.015 131.88L200.903 135H199.351L201.271 132.264L201.911 131.672C201.357 131.587 200.882 131.363 200.487 131C200.103 130.637 199.911 130.147 199.911 129.528C199.911 129.048 199.991 128.637 200.151 128.296C200.322 127.955 200.562 127.672 200.871 127.448C201.181 127.224 201.549 127.064 201.975 126.968C202.402 126.861 202.882 126.808 203.415 126.808C203.81 126.808 204.178 126.835 204.519 126.888C204.861 126.941 205.197 127 205.527 127.064V135H204.247V131.688ZM204.247 128.088C204.109 128.035 203.954 127.997 203.783 127.976C203.613 127.944 203.463 127.928 203.335 127.928C202.653 127.928 202.13 128.051 201.767 128.296C201.415 128.541 201.239 128.931 201.239 129.464C201.239 129.944 201.426 130.317 201.799 130.584C202.183 130.84 202.685 130.968 203.303 130.968C203.314 130.968 203.33 130.968 203.351 130.968C203.373 130.968 203.415 130.968 203.479 130.968C203.543 130.968 203.634 130.968 203.751 130.968C203.869 130.957 204.034 130.947 204.247 130.936V128.088ZM53.968 148.424C54.32 147.912 54.7093 147.555 55.136 147.352C55.5627 147.139 56.096 147.032 56.736 147.032C57.7173 147.032 58.4693 147.352 58.992 147.992C59.5253 148.632 59.792 149.576 59.792 150.824C59.792 152.264 59.4827 153.352 58.864 154.088C58.256 154.824 57.4027 155.192 56.304 155.192C55.1307 155.192 54.2507 154.787 53.664 153.976C53.0773 153.165 52.784 151.891 52.784 150.152C52.784 149.235 52.8267 148.451 52.912 147.8C53.008 147.149 53.1413 146.6 53.312 146.152C53.4933 145.704 53.7067 145.347 53.952 145.08C54.208 144.813 54.4907 144.605 54.8 144.456C55.12 144.296 55.4667 144.184 55.84 144.12C56.2133 144.056 56.6133 144.003 57.04 143.96C57.5947 143.907 58.0267 143.848 58.336 143.784C58.656 143.709 58.912 143.581 59.104 143.4L59.248 144.552C59.1413 144.648 59.024 144.728 58.896 144.792C58.768 144.856 58.6133 144.909 58.432 144.952C58.2507 144.995 58.032 145.032 57.776 145.064C57.5307 145.096 57.2427 145.123 56.912 145.144C56.4533 145.176 56.048 145.235 55.696 145.32C55.3547 145.395 55.056 145.549 54.8 145.784C54.5547 146.008 54.3573 146.333 54.208 146.76C54.0693 147.176 53.9733 147.731 53.92 148.424H53.968ZM54.112 151.016C54.112 151.421 54.1547 151.811 54.24 152.184C54.3253 152.557 54.4533 152.888 54.624 153.176C54.8053 153.453 55.0347 153.672 55.312 153.832C55.5893 153.992 55.9147 154.072 56.288 154.072C57.024 154.072 57.568 153.811 57.92 153.288C58.2827 152.755 58.464 151.971 58.464 150.936C58.464 150.531 58.4267 150.157 58.352 149.816C58.2773 149.475 58.16 149.181 58 148.936C57.84 148.68 57.6373 148.488 57.392 148.36C57.1467 148.221 56.8533 148.152 56.512 148.152C55.68 148.141 55.072 148.387 54.688 148.888C54.304 149.379 54.112 150.088 54.112 151.016ZM67.6501 154.36C67.3301 154.616 66.9248 154.819 66.4341 154.968C65.9541 155.117 65.4421 155.192 64.8981 155.192C64.2901 155.192 63.7621 155.096 63.3141 154.904C62.8661 154.701 62.4981 154.419 62.2101 154.056C61.9221 153.683 61.7088 153.24 61.5701 152.728C61.4315 152.216 61.3621 151.64 61.3621 151C61.3621 149.635 61.6661 148.595 62.2741 147.88C62.8821 147.165 63.7515 146.808 64.8821 146.808C65.2448 146.808 65.6075 146.851 65.9701 146.936C66.3328 147.011 66.6581 147.16 66.9461 147.384C67.2341 147.608 67.4688 147.928 67.6501 148.344C67.8315 148.749 67.9221 149.288 67.9221 149.96C67.9221 150.312 67.8901 150.701 67.8261 151.128H62.6901C62.6901 151.597 62.7381 152.013 62.8341 152.376C62.9301 152.739 63.0795 153.048 63.2821 153.304C63.4848 153.549 63.7461 153.741 64.0661 153.88C64.3968 154.008 64.7968 154.072 65.2661 154.072C65.6288 154.072 65.9915 154.008 66.3541 153.88C66.7168 153.752 66.9888 153.603 67.1701 153.432L67.6501 154.36ZM64.8981 147.928C64.2688 147.928 63.7621 148.093 63.3781 148.424C63.0048 148.755 62.7808 149.32 62.7061 150.12H66.6741C66.6741 149.309 66.5195 148.744 66.2101 148.424C65.9008 148.093 65.4635 147.928 64.8981 147.928ZM75.2193 154.472C74.8993 154.707 74.5206 154.883 74.0833 155C73.6459 155.128 73.1873 155.192 72.7073 155.192C72.0886 155.192 71.5659 155.096 71.1393 154.904C70.7126 154.701 70.3606 154.419 70.0833 154.056C69.8166 153.683 69.6193 153.24 69.4913 152.728C69.3739 152.205 69.3153 151.629 69.3153 151C69.3153 149.645 69.6139 148.611 70.2113 147.896C70.8086 147.171 71.6673 146.808 72.7873 146.808C73.2993 146.808 73.7313 146.851 74.0833 146.936C74.4459 147.011 74.7713 147.123 75.0593 147.272L74.6913 148.376C74.4459 148.237 74.1739 148.131 73.8753 148.056C73.5766 147.971 73.2566 147.928 72.9153 147.928C71.4006 147.928 70.6432 148.952 70.6432 151C70.6432 151.405 70.6806 151.795 70.7553 152.168C70.8406 152.531 70.9739 152.856 71.1553 153.144C71.3473 153.421 71.5926 153.645 71.8913 153.816C72.2006 153.987 72.5793 154.072 73.0273 154.072C73.4113 154.072 73.7526 154.013 74.0513 153.896C74.3606 153.779 74.6113 153.645 74.8033 153.496L75.2193 154.472ZM81.798 148.12H78.262V155H76.982V147H83.078V155H81.798V148.12ZM89.8485 148.12H87.5285C87.4965 148.568 87.4645 149.053 87.4325 149.576C87.4005 150.088 87.3525 150.605 87.2885 151.128C87.2245 151.64 87.1392 152.136 87.0325 152.616C86.9258 153.085 86.7872 153.501 86.6165 153.864C86.4565 154.227 86.2538 154.52 86.0085 154.744C85.7738 154.957 85.4912 155.064 85.1605 155.064C84.9578 155.064 84.7818 155.053 84.6325 155.032C84.4832 155.011 84.3498 154.973 84.2325 154.92L84.4245 153.848C84.5525 153.891 84.6912 153.912 84.8405 153.912C85.0538 153.912 85.2458 153.821 85.4165 153.64C85.5872 153.459 85.7365 153.117 85.8645 152.616C85.9925 152.104 86.0992 151.4 86.1845 150.504C86.2698 149.608 86.3285 148.44 86.3605 147H91.1285V155H89.8485V148.12ZM93.4634 147.592C93.8687 147.347 94.338 147.165 94.8714 147.048C95.4154 146.931 95.9807 146.872 96.5674 146.872C97.122 146.872 97.5647 146.947 97.8954 147.096C98.2367 147.245 98.4927 147.443 98.6634 147.688C98.8447 147.923 98.962 148.184 99.0154 148.472C99.0794 148.76 99.1114 149.048 99.1114 149.336C99.1114 149.976 99.0954 150.6 99.0634 151.208C99.0314 151.816 99.0154 152.392 99.0154 152.936C99.0154 153.331 99.0314 153.704 99.0634 154.056C99.0954 154.408 99.154 154.733 99.2394 155.032H98.2954L97.9594 153.912H97.8794C97.7834 154.061 97.6607 154.211 97.5114 154.36C97.3727 154.499 97.202 154.627 96.9994 154.744C96.7967 154.851 96.562 154.941 96.2954 155.016C96.0287 155.091 95.7247 155.128 95.3834 155.128C95.042 155.128 94.722 155.075 94.4234 154.968C94.1354 154.861 93.8847 154.712 93.6714 154.52C93.458 154.317 93.2874 154.077 93.1594 153.8C93.042 153.523 92.9834 153.208 92.9834 152.856C92.9834 152.387 93.0794 151.997 93.2714 151.688C93.4634 151.368 93.73 151.117 94.0714 150.936C94.4234 150.744 94.8394 150.611 95.3194 150.536C95.81 150.451 96.3487 150.408 96.9354 150.408C97.0847 150.408 97.2287 150.408 97.3674 150.408C97.5167 150.408 97.666 150.419 97.8154 150.44C97.8474 150.12 97.8634 149.832 97.8634 149.576C97.8634 148.989 97.746 148.579 97.5114 148.344C97.2767 148.109 96.85 147.992 96.2314 147.992C96.05 147.992 95.8527 148.008 95.6394 148.04C95.4367 148.061 95.2234 148.099 94.9994 148.152C94.786 148.195 94.578 148.253 94.3754 148.328C94.1834 148.392 94.0127 148.467 93.8634 148.552L93.4634 147.592ZM95.7354 154.008C96.034 154.008 96.3007 153.971 96.5354 153.896C96.77 153.811 96.9727 153.709 97.1434 153.592C97.314 153.464 97.4527 153.325 97.5594 153.176C97.6767 153.027 97.762 152.883 97.8154 152.744V151.416C97.666 151.405 97.5114 151.4 97.3514 151.4C97.202 151.389 97.0527 151.384 96.9034 151.384C96.5727 151.384 96.2474 151.405 95.9274 151.448C95.618 151.48 95.3407 151.549 95.0954 151.656C94.8607 151.752 94.6687 151.891 94.5194 152.072C94.3807 152.243 94.3114 152.461 94.3114 152.728C94.3114 153.101 94.4447 153.411 94.7114 153.656C94.978 153.891 95.3194 154.008 95.7354 154.008ZM106.617 148.12H104.121V155H102.841V148.12H100.345V147H106.617V148.12ZM112.784 151.464H109.168V155H107.888V147H109.168V150.344H112.784V147H114.064V155H112.784V151.464ZM116.081 151C116.081 149.645 116.38 148.611 116.977 147.896C117.585 147.171 118.454 146.808 119.585 146.808C120.182 146.808 120.7 146.909 121.137 147.112C121.585 147.304 121.953 147.587 122.241 147.96C122.529 148.323 122.742 148.765 122.881 149.288C123.02 149.8 123.089 150.371 123.089 151C123.089 152.355 122.785 153.395 122.177 154.12C121.58 154.835 120.716 155.192 119.585 155.192C118.988 155.192 118.465 155.096 118.017 154.904C117.58 154.701 117.217 154.419 116.929 154.056C116.641 153.683 116.428 153.24 116.289 152.728C116.15 152.205 116.081 151.629 116.081 151ZM117.409 151C117.409 151.405 117.446 151.795 117.521 152.168C117.606 152.541 117.734 152.867 117.905 153.144C118.076 153.421 118.3 153.645 118.577 153.816C118.854 153.987 119.19 154.072 119.585 154.072C121.036 154.083 121.761 153.059 121.761 151C121.761 150.584 121.718 150.189 121.633 149.816C121.558 149.443 121.436 149.117 121.265 148.84C121.094 148.563 120.87 148.344 120.593 148.184C120.316 148.013 119.98 147.928 119.585 147.928C118.134 147.917 117.409 148.941 117.409 151ZM124.472 154.264C124.472 153.976 124.552 153.752 124.712 153.592C124.882 153.421 125.106 153.336 125.384 153.336C125.672 153.336 125.901 153.421 126.072 153.592C126.242 153.752 126.328 153.976 126.328 154.264C126.328 154.541 126.242 154.765 126.072 154.936C125.901 155.107 125.672 155.192 125.384 155.192C125.106 155.192 124.882 155.107 124.712 154.936C124.552 154.765 124.472 154.541 124.472 154.264Z" fill="white"/>
<path d="M157.5 31L167 40H148L157.5 31Z" fill="#333333"/>
<circle cx="157.5" cy="12.5" r="12.5" fill="#83B3D3"/>
<g clip-path="url(#clip0_18711_281)">
<path d="M157 17H158V11H157V17Z" fill="white"/>
<path d="M158 8H157V9H158V8Z" fill="white"/>
</g>
<defs>
<filter id="filter0_d_18711_281" x="0" y="25" width="316" height="203" filterUnits="userSpaceOnUse" color-interpolation-filters="sRGB">
<feFlood flood-opacity="0" result="BackgroundImageFix"/>
<feColorMatrix in="SourceAlpha" type="matrix" values="0 0 0 0 0 0 0 0 0 0 0 0 0 0 0 0 0 0 127 0" result="hardAlpha"/>
<feOffset dy="15"/>
<feGaussianBlur stdDeviation="15"/>
<feColorMatrix type="matrix" values="0 0 0 0 0 0 0 0 0 0 0 0 0 0 0 0 0 0 0.3 0"/>
<feBlend mode="normal" in2="BackgroundImageFix" result="effect1_dropShadow_18711_281"/>
<feBlend mode="normal" in="SourceGraphic" in2="effect1_dropShadow_18711_281" result="shape"/>
</filter>
<clipPath id="clip0_18711_281">
<rect width="1" height="9" fill="white" transform="translate(157 8)"/>
</clipPath>
</defs>
</svg>
